<svg width="180" height="72" viewBox="0 0 180 72" fill="none" xmlns="http://www.w3.org/2000/svg">
<g style="mix-blend-mode:luminosity">
<path d="M33.5742 40.4627C33.5742 35.4302 31.8164 33.4416 29.4609 33.4416C27.0352 33.4416 24.6445 35.6332 24.6445 40.4221V40.625C24.6445 45.6575 26.4375 47.9302 29.1797 47.9302C31.5 47.9302 33.5742 45.8604 33.5742 40.4627ZM24.5039 45.8604L22.6055 49.3101H21.9023V26.8263C21.9023 24.3101 21.6562 24.0666 19.4062 23.9043V22.7679L24.7852 22.3621V35.552C25.6992 33.2793 27.5273 31.7371 29.9883 31.7371C33.75 31.7371 36.7031 35.1867 36.7031 40.4627C36.7031 45.901 33.5039 49.5942 29.4609 49.5942C27.0352 49.6348 25.418 48.2955 24.5039 45.8604Z" fill="#231F20"/>
<path d="M50.2383 40.6656C50.2383 36.4449 48.832 33.1981 45.7734 33.1981C42.7148 33.1981 41.3438 36.4449 41.3438 40.6656C41.3438 44.927 42.7148 48.1738 45.7734 48.1738C48.8672 48.1738 50.2383 44.927 50.2383 40.6656ZM38.2148 40.6656C38.2148 35.6332 41.3789 31.7371 45.7734 31.7371C50.168 31.7371 53.3672 35.5926 53.3672 40.6656C53.3672 45.7387 50.168 49.6348 45.7734 49.6348C41.3789 49.6348 38.2148 45.7387 38.2148 40.6656Z" fill="#231F20"/>
<path d="M71.332 49.1478H63.4922V48.052C65.7773 47.8085 65.918 47.565 65.918 45.0893V37.4595C65.918 34.8621 65.1094 33.5228 63.0703 33.5228C60.5742 33.5228 58.957 35.9578 58.957 38.7987V45.0893C58.957 47.6056 59.168 47.8085 61.418 48.052V49.1478H53.5781V48.052C55.8633 47.8085 56.0391 47.565 56.0391 45.0893V36.4043C56.0391 33.888 55.8281 33.6851 53.5781 33.5228V32.3864L58.7813 31.8994V35.4302C59.6602 33.1575 61.3477 31.7371 63.7734 31.7371C66.9023 31.7371 68.8008 33.8069 68.8008 37.703V45.0487C68.8008 47.565 69.0469 47.7679 71.2617 48.0114V49.1478H71.332Z" fill="#231F20"/>
<path d="M85.2187 42.7354V40.3815C80.6836 40.7468 78.9258 42.1267 78.9258 44.7241C78.9258 46.8345 79.8047 47.9708 81.4922 47.9708C83.4258 47.9302 85.2187 45.8604 85.2187 42.7354ZM88.0664 38.0276V46.2257C88.0664 47.4838 88.4531 47.8491 89.0156 47.8491C89.5078 47.8491 90 47.4432 90.2109 47.2809L90.3867 48.4578C90 48.9043 89.2617 49.3913 88.0664 49.3913C86.2383 49.3913 85.2539 48.2549 85.2539 46.2257C84.375 48.4578 82.793 49.5942 80.5781 49.5942C77.5898 49.5942 75.7969 47.7679 75.7969 44.8864C75.7969 41.6397 78.4336 39.3669 85.2187 39.0423V36.8507C85.2187 34.4562 84.2695 33.1575 82.3711 33.1575C80.4023 33.1575 79.9102 34.2939 79.3125 35.9173C78.9961 36.7695 78.6445 37.3377 77.8008 37.3377C76.9219 37.3377 76.4297 36.7695 76.4297 35.8361C76.4297 33.7257 78.9609 31.7371 82.3008 31.7371C86.168 31.7371 88.0664 34.091 88.0664 38.0276Z" fill="#231F20"/>
<path d="M94.7812 40.7062C94.7812 45.7793 96.5391 47.9302 99.3164 47.9302C101.637 47.9302 103.676 45.8604 103.676 40.4627C103.676 35.4302 101.918 33.4416 99.5625 33.4416C97.1367 33.4416 94.7461 35.6332 94.7461 40.4627V40.7062H94.7812ZM97.875 57.5488H89.5078V56.4124C91.793 56.25 91.9687 55.9254 91.9687 53.4497V36.4043C91.9687 33.888 91.7578 33.6851 89.5078 33.5228V32.3864L94.7812 31.8994V35.7955C95.6602 33.3604 97.5234 31.7371 100.09 31.7371C103.852 31.7371 106.805 35.1867 106.805 40.4627C106.805 45.901 103.676 49.5942 99.6328 49.5942C97.2773 49.5942 95.7305 48.4173 94.8867 46.3069V53.4091C94.8867 55.9254 95.2031 56.1283 97.875 56.3718V57.5488Z" fill="#231F20"/>
<path d="M112.359 40.7062C112.359 45.7793 114.117 47.9302 116.895 47.9302C119.215 47.9302 121.254 45.8604 121.254 40.4627C121.254 35.4302 119.496 33.4416 117.141 33.4416C114.715 33.4416 112.324 35.6332 112.324 40.4627V40.7062H112.359ZM115.418 57.5488H107.051V56.4124C109.336 56.25 109.512 55.9254 109.512 53.4497V36.4043C109.512 33.888 109.301 33.6851 107.051 33.5228V32.3864L112.324 31.8994V35.7955C113.203 33.3604 115.066 31.7371 117.633 31.7371C121.395 31.7371 124.348 35.1867 124.348 40.4627C124.348 45.901 121.219 49.5942 117.176 49.5942C114.82 49.5942 113.273 48.4173 112.43 46.3069V53.4091C112.43 55.9254 112.746 56.1283 115.418 56.3718V57.5488Z" fill="#231F20"/>
<path d="M131.59 30.2354L133.523 27.3133C134.613 25.6899 135.176 24.9188 136.055 24.9188C136.793 24.9188 137.355 25.6088 137.355 26.3799C137.355 27.2321 136.934 27.7597 134.93 29.0584L132.012 30.8847L131.59 30.2354ZM125.895 40.6656C125.895 35.7954 129.094 31.737 133.066 31.737C136.758 31.737 139.254 34.9838 139.254 38.8799V40.0568H129.023C129.023 40.2597 129.023 40.4221 129.023 40.625C129.023 45.3328 130.711 47.8896 133.77 47.8896C136.02 47.8896 137.391 46.3474 138.27 44.9675L139.359 45.8604C138.305 47.7678 136.441 49.5941 133.418 49.5941C128.742 49.6347 125.895 46.1039 125.895 40.6656ZM129.129 38.7581H136.23C136.16 35.0649 135.105 33.2386 133.066 33.2386C131.062 33.198 129.516 35.1867 129.129 38.7581Z" fill="#231F20"/>
<path d="M146.109 47.8897C147.164 47.8897 147.762 46.1446 147.902 45.9011L148.816 46.6316C148.605 47.1186 147.727 49.5943 145.477 49.5943C143.332 49.5943 142.172 48.1738 142.172 45.2111V33.5634H139.746V32.3459C142.277 32.0212 143.543 31.0066 144 25.9741H145.09V32.2241H148.254V33.5634H145.09V45.617C145.09 47.3215 145.371 47.8897 146.109 47.8897Z" fill="#231F20"/>
<path d="M151.383 27.0698C151.383 25.8928 152.227 24.9188 153.246 24.9188C154.301 24.9188 155.109 25.8928 155.109 27.0698C155.109 28.2467 154.301 29.2208 153.246 29.2208C152.227 29.2208 151.383 28.2467 151.383 27.0698ZM149.766 48.0519C151.664 47.8084 151.84 47.5649 151.84 45.0893V36.4448C151.84 33.9691 151.418 33.7662 149.59 33.4821V32.3864L154.723 31.8993V45.0487C154.723 47.5649 154.898 47.7679 157.043 48.0114V49.1071H149.766V48.0519Z" fill="#231F20"/>
<path d="M163.512 47.8897C164.566 47.8897 165.164 46.1446 165.305 45.9011L166.219 46.6316C166.008 47.1186 165.129 49.5943 162.844 49.5943C160.699 49.5943 159.539 48.1738 159.539 45.2111V33.5634H156.797V32.3459C159.715 31.94 160.91 31.0066 161.367 25.9741H162.457V32.2241H166.113V33.5634H162.457V45.617C162.457 47.3215 162.773 47.8897 163.512 47.8897Z" fill="#231F20"/>
</g>
</svg>
