<svg xmlns="http://www.w3.org/2000/svg" fill="none" viewBox="0 0 10.798000000000002 37.07185628742515" style="max-height: 500px" width="27.798000000000002" height="39.07185628742515">
<path fill="#A9C1A9" d="M27.0527 29.916C27.0527 30.1113 27.043 30.2578 27.0234 30.3555C26.9258 30.3945 26.8477 30.4531 26.7891 30.5312C26.7305 30.5898 26.6328 30.6094 26.4961 30.5898C26.457 30.8828 26.3594 31.127 26.2031 31.3223C26.0469 31.5176 25.8809 31.6934 25.7051 31.8496C25.5488 32.0254 25.3926 32.2012 25.2363 32.377C25.0801 32.5723 24.9824 32.8164 24.9434 33.1094C24.6504 33.2656 24.3574 33.4707 24.0645 33.7246C23.791 33.998 23.5469 34.1836 23.332 34.2812C23.1758 34.3594 23.0098 34.418 22.834 34.457C22.6582 34.5156 22.4824 34.584 22.3066 34.6621C21.7402 34.916 21.1543 35.1797 20.5488 35.4531C19.9629 35.7266 19.3477 35.8633 18.7031 35.8633H18.498C18.4199 35.9414 18.3223 35.9902 18.2051 36.0098C18.0879 36.0488 17.9707 36.0781 17.8535 36.0977C17.7363 36.1172 17.6191 36.1465 17.502 36.1855C17.3848 36.2246 17.2969 36.2832 17.2383 36.3613C17.0234 36.2832 16.7891 36.2441 16.5352 36.2441H16.3301C15.998 36.3223 15.6855 36.3809 15.3926 36.4199C15.0996 36.459 14.7871 36.4785 14.4551 36.4785C13.8691 36.4785 13.2832 36.4395 12.6973 36.3613C12.1113 36.2832 11.5254 36.2148 10.9395 36.1562C10.5684 35.8633 10.2656 35.4922 10.0312 35.043C9.79688 34.6133 9.67969 34.1543 9.67969 33.666C9.67969 33.2949 9.75781 32.9434 9.91406 32.6113C10.0703 32.2988 10.2754 32.0156 10.5293 31.7617H10.6172C10.793 31.7617 10.9688 31.7227 11.1445 31.6445C11.3398 31.5664 11.5254 31.5273 11.7012 31.5273C11.8965 31.5273 12.0527 31.6055 12.1699 31.7617C12.3066 31.918 12.4043 32.1035 12.4629 32.3184C12.541 32.5332 12.5898 32.748 12.6094 32.9629C12.6289 33.1973 12.6387 33.3828 12.6387 33.5195C12.8535 33.6172 13.0781 33.6758 13.3125 33.6953C13.5664 33.7148 13.8203 33.7246 14.0742 33.7246C14.3281 33.7246 14.6113 33.7051 14.9238 33.666C15.2363 33.6465 15.5488 33.5977 15.8613 33.5195C16.1934 33.4609 16.5059 33.3828 16.7988 33.2852C17.1113 33.1875 17.375 33.0605 17.5898 32.9043C18.6641 32.8066 19.6113 32.5625 20.4316 32.1719C21.252 31.7812 22.1211 31.3223 23.0391 30.7949C23.0781 30.5801 23.1562 30.4141 23.2734 30.2969C23.4102 30.1602 23.4785 29.9648 23.4785 29.7109C23.4785 29.6719 23.4688 29.6328 23.4492 29.5938C23.4492 29.5352 23.4492 29.4863 23.4492 29.4473C23.0586 28.959 22.6484 28.5293 22.2188 28.1582C21.8086 27.7871 21.2715 27.543 20.6074 27.4258C20.5293 27.25 20.4023 27.123 20.2266 27.0449C20.0508 26.9473 19.8652 26.8594 19.6699 26.7812C19.4746 26.7031 19.2891 26.625 19.1133 26.5469C18.9375 26.4492 18.8105 26.293 18.7324 26.0781C18.2051 25.9805 17.6582 25.8633 17.0918 25.7266C16.5449 25.5703 16.0762 25.2969 15.6855 24.9062C15.373 24.8867 15.0703 24.8281 14.7773 24.7305C14.5039 24.6133 14.2305 24.5059 13.957 24.4082C13.6836 24.291 13.4004 24.1934 13.1074 24.1152C12.8145 24.0176 12.5117 23.9688 12.1992 23.9688C12.1211 23.832 12.0137 23.7246 11.877 23.6465C11.7402 23.5684 11.584 23.5 11.4082 23.4414C11.252 23.3828 11.0957 23.3242 10.9395 23.2656C10.8027 23.1875 10.6953 23.0801 10.6172 22.9434C10.5391 22.9629 10.4805 23.002 10.4414 23.0605C10.4023 23.1191 10.334 23.1484 10.2363 23.1484H10.1191C10.0801 23.0312 10.002 22.9531 9.88477 22.9141C9.76758 22.8555 9.69922 22.748 9.67969 22.5918C9.32812 22.5723 9.00586 22.5039 8.71289 22.3867C8.43945 22.2695 8.17578 22.1426 7.92188 22.0059C7.6875 21.8496 7.44336 21.7031 7.18945 21.5664C6.93555 21.4297 6.65234 21.3223 6.33984 21.2441C6.14453 21.0879 5.95898 20.9219 5.7832 20.7461C5.62695 20.5508 5.42188 20.4531 5.16797 20.4531C5.10938 20.4531 5.00195 20.4727 4.8457 20.5117C4.80664 20.1602 4.66016 19.916 4.40625 19.7793C4.15234 19.623 3.87891 19.4863 3.58594 19.3691C3.39062 18.8613 3.12695 18.4121 2.79492 18.0215C2.46289 17.6309 2.10156 17.2695 1.71094 16.9375C1.75 16.8203 1.76953 16.7324 1.76953 16.6738C1.76953 16.4785 1.7207 16.3125 1.62305 16.1758C1.52539 16.0195 1.41797 15.8926 1.30078 15.7949C1.02734 14.916 0.890625 14.0566 0.890625 13.2168C0.890625 12.0449 1.1543 10.9609 1.68164 9.96484C2.18945 8.94922 3 8.1875 4.11328 7.67969C4.13281 7.52344 4.18164 7.38672 4.25977 7.26953C4.35742 7.15234 4.41602 7.01562 4.43555 6.85938C4.61133 6.85938 4.74805 6.82031 4.8457 6.74219C4.94336 6.66406 5.03125 6.58594 5.10938 6.50781C5.20703 6.41016 5.30469 6.32227 5.40234 6.24414C5.5 6.16602 5.62695 6.11719 5.7832 6.09766C6.52539 5.45312 7.31641 4.93555 8.15625 4.54492C8.99609 4.13477 9.85547 3.71484 10.7344 3.28516C10.9102 3.20703 11.0566 3.06055 11.1738 2.8457H11.3496C11.5449 2.8457 11.6914 2.80664 11.7891 2.72852C11.9062 2.63086 12.0723 2.60156 12.2871 2.64062C12.3652 2.52344 12.4629 2.44531 12.5801 2.40625C12.7168 2.36719 12.8438 2.33789 12.9609 2.31836C13.0977 2.2793 13.2246 2.23047 13.3418 2.17188C13.459 2.11328 13.5371 2.02539 13.5762 1.9082H13.7812C14.1133 1.9082 14.4355 1.85938 14.748 1.76172C15.0605 1.64453 15.373 1.51758 15.6855 1.38086H15.8906C16.2812 1.38086 16.6426 1.3125 16.9746 1.17578C17.3262 1.01953 17.6973 0.912109 18.0879 0.853516C18.2441 0.814453 18.4004 0.804687 18.5566 0.824219C18.7129 0.84375 18.8691 0.853516 19.0254 0.853516C19.123 0.853516 19.2402 0.84375 19.377 0.824219C19.5137 0.804687 19.6113 0.746094 19.6699 0.648438H19.7285C19.8457 0.648438 19.9141 0.6875 19.9336 0.765625C19.9531 0.84375 20.0117 0.882812 20.1094 0.882812C20.2461 0.882812 20.3828 0.863281 20.5195 0.824219C20.6562 0.785156 20.793 0.765625 20.9297 0.765625C21.5156 0.765625 22.0918 0.824219 22.6582 0.941406C23.2441 1.05859 23.8203 1.16602 24.3867 1.26367C24.4258 1.49805 24.5234 1.66406 24.6797 1.76172C24.8555 1.85938 25.041 1.94727 25.2363 2.02539V2.14258C25.2363 2.29883 25.2754 2.42578 25.3535 2.52344C25.2754 2.79688 25.1387 3.00195 24.9434 3.13867C24.748 3.27539 24.5332 3.39258 24.2988 3.49023C24.3965 3.56836 24.4551 3.67578 24.4746 3.8125C24.4941 3.94922 24.5039 4.07617 24.5039 4.19336V4.54492L24.3574 4.51562C24.0449 4.51562 23.8887 4.66211 23.8887 4.95508C23.6348 4.79883 23.3516 4.70117 23.0391 4.66211C22.7461 4.62305 22.4531 4.60352 22.1602 4.60352C21.7695 4.60352 21.3594 4.62305 20.9297 4.66211C20.5 4.68164 20.0801 4.67188 19.6699 4.63281C19.5137 4.82812 19.3184 4.97461 19.084 5.07227C18.8496 5.15039 18.6152 5.18945 18.3809 5.18945C18.127 5.18945 17.8828 5.14062 17.6484 5.04297C17.4141 4.92578 17.248 4.75977 17.1504 4.54492C17.0527 4.50586 16.9648 4.48633 16.8867 4.48633H16.623C16.3105 4.48633 15.998 4.52539 15.6855 4.60352C15.3926 4.66211 15.0898 4.74023 14.7773 4.83789C14.4648 4.91602 14.1523 5.00391 13.8398 5.10156C13.5469 5.17969 13.2441 5.22852 12.9316 5.24805C12.8145 5.4043 12.6582 5.51172 12.4629 5.57031C12.2676 5.62891 12.1113 5.73633 11.9941 5.89258C11.584 5.9707 11.2129 6.10742 10.8809 6.30273C10.5488 6.47852 10.2266 6.67383 9.91406 6.88867L9.00586 7.50391C8.71289 7.69922 8.38086 7.86523 8.00977 8.00195C7.73633 8.29492 7.48242 8.5293 7.24805 8.70508C7.01367 8.88086 6.71094 9.03711 6.33984 9.17383C6.10547 9.25195 5.96875 9.36914 5.92969 9.52539C5.91016 9.68164 5.83203 9.83789 5.69531 9.99414C5.57812 10.1309 5.43164 10.2383 5.25586 10.3164C5.09961 10.375 4.96289 10.4824 4.8457 10.6387C4.74805 10.7754 4.66992 10.9414 4.61133 11.1367C4.57227 11.3125 4.52344 11.4883 4.46484 11.6641C4.40625 11.8398 4.33789 12.0156 4.25977 12.1914C4.18164 12.3477 4.06445 12.4844 3.9082 12.6016C3.9082 12.6797 3.89844 12.7578 3.87891 12.8359C3.87891 12.9141 3.87891 12.9824 3.87891 13.041C3.87891 13.3145 3.9082 13.5977 3.9668 13.8906C4.04492 14.1641 4.09375 14.4375 4.11328 14.7109C4.50391 15.3945 4.96289 16.0195 5.49023 16.5859C6.01758 17.1328 6.58398 17.6406 7.18945 18.1094C7.79492 18.5781 8.41992 19.0176 9.06445 19.4277C9.72852 19.8379 10.3828 20.2383 11.0273 20.6289C11.2617 20.6094 11.4766 20.6387 11.6719 20.7168C11.8672 20.7754 12.0723 20.8145 12.2871 20.834C12.5215 21.0098 12.7949 21.1465 13.1074 21.2441L14.0449 21.5371C14.3574 21.6348 14.6602 21.752 14.9531 21.8887C15.2461 22.0059 15.4902 22.1719 15.6855 22.3867C15.7832 22.4062 15.8711 22.4355 15.9492 22.4746C16.0273 22.4941 16.1152 22.5039 16.2129 22.5039C16.3301 22.5039 16.3984 22.4648 16.418 22.3867C17.2969 22.7188 18.1562 23.0898 18.9961 23.5C19.8359 23.8906 20.7246 24.1934 21.6621 24.4082C22.0332 24.7207 22.4434 24.9941 22.8926 25.2285C23.3418 25.4629 23.791 25.707 24.2402 25.9609C24.6895 26.1953 25.1191 26.459 25.5293 26.752C25.9395 27.0254 26.3008 27.3574 26.6133 27.748C26.6523 28.1191 26.7305 28.4805 26.8477 28.832C26.9844 29.1641 27.0527 29.5254 27.0527 29.916ZM34.9629 26.9863C34.8652 27.1426 34.748 27.2891 34.6113 27.4258C34.4746 27.543 34.3477 27.6699 34.2305 27.8066C34.0938 27.8652 33.9375 27.8945 33.7617 27.8945C33.6055 27.8945 33.4492 27.8945 33.293 27.8945C33.1562 27.875 33.0195 27.875 32.8828 27.8945C32.7656 27.8945 32.668 27.9336 32.5898 28.0117C32.4336 27.9727 32.3164 27.9043 32.2383 27.8066C32.1602 27.6895 32.0234 27.6211 31.8281 27.6016C31.75 27.582 31.6719 27.582 31.5938 27.6016C31.3008 27.2695 31.0273 26.918 30.7734 26.5469C30.5391 26.1758 30.3145 25.8242 30.0996 25.4922C30.0801 24.7695 30.0215 24.0371 29.9238 23.2949C29.9043 23.1191 29.875 22.9434 29.8359 22.7676C29.7969 22.5918 29.7676 22.4258 29.748 22.2695C29.748 22.0742 29.7578 21.8887 29.7773 21.7129C29.8164 21.5176 29.8457 21.3418 29.8652 21.1855C29.9434 20.6191 30.0312 20.0625 30.1289 19.5156C30.2266 18.9688 30.3145 18.4121 30.3926 17.8457C30.4707 17.3379 30.5098 16.8105 30.5098 16.2637C30.5098 15.6973 30.4219 15.1699 30.2461 14.6816L30.2168 14.5352C30.2559 14.3789 30.2949 14.252 30.334 14.1543C30.3926 14.0371 30.4316 13.9102 30.4512 13.7734C30.4902 13.5586 30.4414 13.4023 30.3047 13.3047C30.3633 13.1484 30.4609 13.0508 30.5977 13.0117C30.7344 12.9531 30.8125 12.8359 30.832 12.6602C30.8516 12.582 30.8516 12.5039 30.832 12.4258C30.9883 12.3672 31.1445 12.3184 31.3008 12.2793C31.4766 12.2207 31.6426 12.2109 31.7988 12.25C32.0527 12.2891 32.2773 12.377 32.4727 12.5137C32.668 12.6309 32.8535 12.7676 33.0293 12.9238C33.3418 13.8613 33.4688 14.8574 33.4102 15.9121C33.3516 16.9473 33.2539 17.9922 33.1172 19.0469C32.9805 20.1016 32.8926 21.1367 32.8535 22.1523C32.8145 23.1484 32.9707 24.0762 33.3223 24.9355L33.3809 24.9648C33.4785 24.9844 33.5566 24.9551 33.6152 24.877C33.6738 24.7793 33.752 24.7402 33.8496 24.7598C33.9277 24.7988 33.9766 24.8184 33.9961 24.8184C34.0742 25.209 34.2012 25.5801 34.377 25.9316C34.5527 26.2832 34.748 26.6348 34.9629 26.9863ZM65.9297 27.3086C65.832 27.6211 65.8027 27.9336 65.8418 28.2461C65.7832 28.3242 65.7148 28.373 65.6367 28.3926C65.5586 28.4121 65.4805 28.4414 65.4023 28.4805C65.3242 28.5 65.2559 28.5391 65.1973 28.5977C65.1582 28.6367 65.1582 28.7246 65.1973 28.8613C64.5527 28.9004 63.9375 29.0371 63.3516 29.2715C62.7656 29.5059 62.1895 29.7598 61.623 30.0332C61.3301 29.9355 61.0762 29.8184 60.8613 29.6816C60.6465 29.5449 60.373 29.457 60.041 29.418C59.709 28.7539 59.3965 28.0605 59.1035 27.3379C58.8301 26.5957 58.6934 25.8535 58.6934 25.1113C58.6934 24.5645 58.791 24.0664 58.9863 23.6172C58.9863 23.0312 59.0352 22.4551 59.1328 21.8887C59.2305 21.3223 59.3379 20.7656 59.4551 20.2188C59.5918 19.6523 59.709 19.0859 59.8066 18.5195C59.9043 17.9531 59.9531 17.377 59.9531 16.791V16.1465C59.9141 16.1465 59.8652 16.1953 59.8066 16.293C59.748 16.3711 59.6895 16.4688 59.6309 16.5859C59.5918 16.6836 59.5527 16.7812 59.5137 16.8789C59.4746 16.9766 59.4453 17.0352 59.4258 17.0547C59.0938 17.3086 58.8301 17.6309 58.6348 18.0215C58.459 18.3926 58.2637 18.7441 58.0488 19.0762C57.7754 19.4863 57.4824 19.8867 57.1699 20.2773C56.877 20.668 56.5059 20.9707 56.0566 21.1855V21.2441C56.0566 21.3418 56.0273 21.4102 55.9688 21.4492C55.9102 21.4883 55.9004 21.5859 55.9395 21.7422C55.4512 21.8984 54.9922 22.123 54.5625 22.416C54.1523 22.709 53.8105 23.0801 53.5371 23.5293C53.1465 23.627 52.7754 23.7637 52.4238 23.9395C52.0918 24.0957 51.75 24.2715 51.3984 24.4668C51.2422 24.5449 51.0762 24.6426 50.9004 24.7598C50.7246 24.877 50.5488 24.9551 50.373 24.9941C50.2168 25.0527 50.002 25.0918 49.7285 25.1113C49.4746 25.1309 49.2012 25.1504 48.9082 25.1699C48.6348 25.1895 48.3613 25.1992 48.0879 25.1992H47.4434C47.3457 25.1992 47.2188 25.1504 47.0625 25.0527C46.9062 24.9551 46.7305 24.8477 46.5352 24.7305C46.3594 24.6133 46.1738 24.5059 45.9785 24.4082C45.7832 24.291 45.5977 24.2129 45.4219 24.1738C45.2656 23.666 45.041 23.2168 44.748 22.8262C44.4746 22.416 44.1816 22.0059 43.8691 21.5957C43.7715 21.127 43.6348 20.6387 43.459 20.1309C43.3027 19.623 43.0195 19.2031 42.6094 18.8711C42.707 18.7344 42.7559 18.5781 42.7559 18.4023C42.7559 18.1875 42.707 17.9824 42.6094 17.7871C42.5117 17.5918 42.4629 17.377 42.4629 17.1426C42.4629 16.9863 42.4727 16.8691 42.4922 16.791C42.2773 17.0254 42.1211 17.3281 42.0234 17.6992C41.9453 18.0508 41.9062 18.373 41.9062 18.666C41.9062 18.9004 41.9355 19.1152 41.9941 19.3105C41.7988 19.584 41.6719 19.9258 41.6133 20.3359C41.5742 20.7461 41.5547 21.1074 41.5547 21.4199C41.5547 21.8105 41.584 22.1914 41.6426 22.5625C41.3301 22.875 41.1738 23.2559 41.1738 23.7051C41.1738 23.959 41.2324 24.1836 41.3496 24.3789C41.3496 24.457 41.3301 24.5156 41.291 24.5547C41.252 24.5938 41.2031 24.623 41.1445 24.6426C41.1055 24.6621 41.0566 24.6914 40.998 24.7305C40.959 24.75 40.9395 24.7988 40.9395 24.877C40.9395 24.9746 40.9395 25.082 40.9395 25.1992C40.959 25.3164 40.9688 25.4336 40.9688 25.5508C40.9688 25.8242 40.959 26.1074 40.9395 26.4004C40.9199 26.6934 40.9102 26.9766 40.9102 27.25C40.9102 27.8164 40.959 28.2266 41.0566 28.4805C41.1738 28.7148 41.3105 28.8906 41.4668 29.0078C41.6426 29.125 41.8281 29.2422 42.0234 29.3594C42.2188 29.4766 42.4141 29.7012 42.6094 30.0332C42.5508 30.209 42.4434 30.3555 42.2871 30.4727C42.1504 30.5703 42.0137 30.6777 41.877 30.7949C41.7598 30.8926 41.6523 31.0098 41.5547 31.1465C41.457 31.2832 41.418 31.4785 41.4375 31.7324H41.291C41.0371 31.7324 40.793 31.7715 40.5586 31.8496C40.3242 31.9277 40.0801 31.9668 39.8262 31.9668C39.7676 31.9668 39.709 31.957 39.6504 31.9375C39.5918 31.9375 39.5332 31.9375 39.4746 31.9375L39.1816 31.7617C39.084 31.7031 38.9863 31.6738 38.8887 31.6738C38.791 31.6738 38.6641 31.6934 38.5078 31.7324C38.2344 30.8535 38.0195 29.9453 37.8633 29.0078C37.7266 28.0703 37.6582 27.1523 37.6582 26.2539C37.6582 26.1562 37.6777 26.0586 37.7168 25.9609C37.7754 25.8438 37.8535 25.8047 37.9512 25.8438V25.2871C37.9512 24.6816 38 24.0957 38.0977 23.5293C38.2148 22.9434 38.2734 22.3379 38.2734 21.7129C38.2734 21.5371 38.2637 21.3613 38.2441 21.1855C38.2441 21.0098 38.2344 20.8438 38.2148 20.6875C38.3125 20.3555 38.4102 20.0234 38.5078 19.6914C38.625 19.3398 38.6836 18.9785 38.6836 18.6074C38.6836 18.4512 38.6543 18.2656 38.5957 18.0508C38.752 17.9336 38.8691 17.7871 38.9473 17.6113C39.0254 17.416 39.084 17.2109 39.123 16.9961C39.1621 16.7617 39.1914 16.5371 39.2109 16.3223C39.2305 16.1074 39.25 15.9121 39.2695 15.7363C39.4648 15.3457 39.5723 14.9258 39.5918 14.4766C39.6113 14.0273 39.709 13.6074 39.8848 13.2168C39.8652 13.1387 39.8555 13.002 39.8555 12.8066C39.8555 12.416 39.9141 12.0254 40.0312 11.6348C40.168 11.2246 40.4316 10.9121 40.8223 10.6973C41.1738 10.834 41.584 10.9023 42.0527 10.9023C42.502 10.9023 42.9316 10.834 43.3418 10.6973C43.459 10.7363 43.5664 10.7852 43.6641 10.8438C43.7617 10.8828 43.8594 10.9316 43.957 10.9902C44.0742 11.0293 44.1914 11.0684 44.3086 11.1074C44.4258 11.127 44.5625 11.127 44.7188 11.1074C44.9141 11.6738 45.0801 12.25 45.2168 12.8359C45.373 13.4219 45.4902 14.0176 45.5684 14.623C45.6074 14.877 45.6172 15.1504 45.5977 15.4434C45.5977 15.7363 45.6172 16.0098 45.6562 16.2637C45.6758 16.4199 45.7246 16.5664 45.8027 16.7031C45.8809 16.8203 45.959 16.957 46.0371 17.1133C46.1152 17.2695 46.1738 17.4453 46.2129 17.6406C46.2715 17.8359 46.291 18.0801 46.2715 18.373C46.4863 18.8809 46.7207 19.3691 46.9746 19.8379C47.248 20.2871 47.541 20.7363 47.8535 21.1855C48.0293 21.2441 48.1855 21.3223 48.3223 21.4199C48.459 21.498 48.5469 21.6348 48.5859 21.8301C48.7617 21.8301 48.918 21.8594 49.0547 21.918L49.5527 22.0645C50.2949 21.8301 50.9785 21.5176 51.6035 21.127C52.248 20.7363 52.9219 20.4043 53.625 20.1309C54.4844 19.291 55.2266 18.3633 55.8516 17.3477C56.4766 16.3125 57.1016 15.2871 57.7266 14.2715V13.627C57.8438 13.5684 57.9414 13.5 58.0195 13.4219C58.1172 13.3242 58.2344 13.2559 58.3711 13.2168C58.3906 12.9824 58.4395 12.7578 58.5176 12.543C58.6152 12.3086 58.7129 12.0938 58.8105 11.8984C58.9277 11.6836 59.0254 11.4785 59.1035 11.2832C59.1816 11.0684 59.2207 10.8438 59.2207 10.6094C59.2207 10.4727 59.2109 10.3555 59.1914 10.2578C59.4844 9.96484 59.8359 9.81836 60.2461 9.81836C60.6367 9.81836 61.0273 9.91602 61.418 10.1113C61.8281 10.2871 62.209 10.4531 62.5605 10.6094C62.7754 11.0781 62.9316 11.5762 63.0293 12.1035C63.1465 12.6113 63.2246 13.1387 63.2637 13.6855C63.3027 14.2324 63.3223 14.7793 63.3223 15.3262V17.4062C63.3027 17.5625 63.2441 17.6797 63.1465 17.7578C63.0684 17.8164 63.0098 17.9141 62.9707 18.0508V18.3438C62.9707 18.4414 62.9609 18.5391 62.9414 18.6367C62.9414 19.0469 62.8926 19.4766 62.7949 19.9258C62.6973 20.4922 62.5703 21.0684 62.4141 21.6543C62.2773 22.2207 62.209 22.7969 62.209 23.3828C62.209 23.5977 62.2188 23.8125 62.2383 24.0273C62.2578 24.2422 62.2969 24.457 62.3555 24.6719C62.2578 24.8477 62.209 25.0723 62.209 25.3457C62.209 25.6582 62.2578 25.9512 62.3555 26.2246C62.4727 26.4785 62.6094 26.7324 62.7656 26.9863C63.0391 26.9863 63.3125 26.9766 63.5859 26.957C63.8594 26.9375 64.1426 26.9277 64.4355 26.9277C64.709 26.9277 64.9629 26.957 65.1973 27.0156C65.4316 27.0547 65.6758 27.1523 65.9297 27.3086ZM89.7773 14.7109C89.7773 14.9844 89.7676 15.2578 89.748 15.5312C89.7285 15.8047 89.6992 16.0781 89.6602 16.3516C89.5234 16.5469 89.3867 16.7227 89.25 16.8789C89.1328 17.0156 89.0547 17.1914 89.0156 17.4062C88.8008 17.5625 88.5566 17.7773 88.2832 18.0508C88.0293 18.3242 87.9219 18.5977 87.9609 18.8711H87.5508C87.3164 19.2227 87.043 19.5254 86.7305 19.7793C86.418 20.0332 86.0859 20.2773 85.7344 20.5117L84.709 21.1855C84.377 21.4004 84.0645 21.6543 83.7715 21.9473C83.6152 21.9668 83.4883 21.9961 83.3906 22.0352C83.293 22.0742 83.166 22.084 83.0098 22.0645C82.4043 22.4551 81.7695 22.7969 81.1055 23.0898C80.4609 23.3828 79.8066 23.6758 79.1426 23.9688C78.498 24.2422 77.8535 24.5352 77.209 24.8477C76.5645 25.1602 75.9492 25.5215 75.3633 25.9316C75.3047 25.9121 75.2266 25.9023 75.1289 25.9023C74.9531 25.9023 74.7773 25.9316 74.6016 25.9902C74.4258 26.0293 74.25 26.0488 74.0742 26.0488C73.9961 26.0488 73.8887 26.0391 73.752 26.0195C73.6348 26 73.5469 25.9707 73.4883 25.9316C73.3906 25.873 73.3027 25.7852 73.2246 25.668C73.1465 25.5508 73.0879 25.4238 73.0488 25.2871C73.0098 25.1309 72.9805 24.9844 72.9609 24.8477C72.9414 24.7109 72.9316 24.5938 72.9316 24.4961C72.9316 24.3789 72.9414 24.252 72.9609 24.1152C72.9805 23.9785 73.0098 23.8516 73.0488 23.7344C73.6152 23.6953 74.1816 23.5488 74.748 23.2949C75.334 23.041 75.8906 22.7969 76.418 22.5625C76.5547 22.5039 76.6621 22.4355 76.7402 22.3574C76.8379 22.2598 76.9355 22.1816 77.0332 22.123C77.1309 22.0449 77.2383 21.9766 77.3555 21.918C77.4727 21.8594 77.6191 21.8301 77.7949 21.8301H77.8828C79.1133 21.2637 80.3145 20.6484 81.4863 19.9844C82.6777 19.3203 83.8594 18.6465 85.0312 17.9629C85.0898 17.7871 85.1777 17.6113 85.2949 17.4355C85.4316 17.2598 85.5586 17.0938 85.6758 16.9375C85.793 16.7617 85.9004 16.5859 85.998 16.4102C86.0957 16.2344 86.1445 16.0586 86.1445 15.8828C86.1445 15.5312 85.9785 15.2383 85.6465 15.0039H85.5293C85.2949 15.0039 85.0898 14.9746 84.9141 14.916C84.7383 14.8379 84.5723 14.7695 84.416 14.7109C84.2598 14.6328 84.084 14.5742 83.8887 14.5352C83.6934 14.4766 83.4688 14.457 83.2148 14.4766C83.1172 14.3984 82.9609 14.3301 82.7461 14.2715C82.5312 14.2129 82.3555 14.1836 82.2188 14.1836C81.5156 14.1836 80.8223 14.2324 80.1387 14.3301C79.4551 14.4082 78.7715 14.457 78.0879 14.4766C77.9121 14.5742 77.7461 14.6621 77.5898 14.7402C77.4336 14.8184 77.248 14.8574 77.0332 14.8574C76.9355 14.8574 76.8477 14.8574 76.7695 14.8574C76.6914 14.8379 76.6035 14.8184 76.5059 14.7988C76.1348 14.9551 75.7148 15.0918 75.2461 15.209C74.7773 15.3066 74.3086 15.4336 73.8398 15.5898C73.3906 15.7266 72.9707 15.9023 72.5801 16.1172C72.1895 16.332 71.8867 16.625 71.6719 16.9961C71.6719 17.0938 71.6914 17.1816 71.7305 17.2598C71.7695 17.3184 71.7891 17.3965 71.7891 17.4941V17.6113C71.6719 17.7285 71.5938 17.8652 71.5547 18.0215C71.5156 18.1582 71.4863 18.3047 71.4668 18.4609C71.4473 18.5977 71.418 18.7441 71.3789 18.9004C71.3594 19.0371 71.291 19.1738 71.1738 19.3105C71.252 19.6035 71.291 19.9258 71.291 20.2773C71.291 20.668 71.2617 21.0586 71.2031 21.4492C71.1641 21.8398 71.1445 22.2305 71.1445 22.6211C71.1445 22.9922 71.1836 23.3242 71.2617 23.6172C71.1445 23.7344 71.0957 23.9102 71.1152 24.1445C71.1348 24.3789 71.0859 24.5547 70.9688 24.6719C70.9688 24.8281 71.0078 24.9355 71.0859 24.9941C71.1836 25.0527 71.2422 25.1504 71.2617 25.2871C71.1836 25.6191 71.1445 25.9805 71.1445 26.3711C71.1445 26.9375 71.2031 27.5137 71.3203 28.0996C71.457 28.6855 71.6133 29.2617 71.7891 29.8281C72.1016 29.7305 72.4336 29.6523 72.7852 29.5938C73.1562 29.5156 73.5078 29.4766 73.8398 29.4766C73.8984 29.4766 73.957 29.4863 74.0156 29.5059C74.0742 29.5059 74.1328 29.5059 74.1914 29.5059C74.2305 29.7207 74.3086 29.916 74.4258 30.0918C74.543 30.2676 74.6504 30.4629 74.748 30.6777C74.6504 30.8145 74.5625 30.9219 74.4844 31C74.4258 31.0977 74.3965 31.2246 74.3965 31.3809C74.123 31.4004 73.8984 31.4688 73.7227 31.5859C73.5469 31.7227 73.3516 31.8691 73.1367 32.0254H73.0195C72.6875 32.0254 72.4141 32.084 72.1992 32.2012C71.9844 32.3379 71.7402 32.4844 71.4668 32.6406C71.2324 32.543 70.998 32.4941 70.7637 32.4941C70.5098 32.4941 70.2559 32.543 70.002 32.6406C69.6895 32.5039 69.4355 32.2891 69.2402 31.9961C69.0449 31.7227 68.8789 31.4102 68.7422 31.0586C68.6055 30.7266 68.4785 30.3848 68.3613 30.0332C68.2637 29.6816 68.1465 29.3594 68.0098 29.0664V28.5977C68.0098 28.1484 67.9707 27.7188 67.8926 27.3086C67.834 26.8789 67.8047 26.4395 67.8047 25.9902C67.8047 25.8145 67.8145 25.6289 67.834 25.4336C67.873 25.2383 67.9316 25.0527 68.0098 24.877C67.9707 24.7012 67.9512 24.5352 67.9512 24.3789V23.8223C67.9512 23.2363 67.9707 22.6504 68.0098 22.0645C68.0684 21.4785 68.0977 20.8926 68.0977 20.3066C68.0977 19.877 68.0684 19.4375 68.0098 18.9883C67.9121 19.0273 67.8242 19.0664 67.7461 19.1055C67.668 19.1445 67.5801 19.1641 67.4824 19.1641C67.3848 19.1641 67.2871 19.1543 67.1895 19.1348C67.1113 19.1152 67.0332 19.0957 66.9551 19.0762C66.7598 18.9004 66.623 18.6855 66.5449 18.4316C66.4668 18.1777 66.3594 17.9434 66.2227 17.7285C66.2227 17.3574 66.2812 17.0547 66.3984 16.8203C66.4961 16.5664 66.623 16.3418 66.7793 16.1465C66.9355 15.9316 67.0918 15.7266 67.248 15.5312C67.4238 15.3359 67.5703 15.0918 67.6875 14.7988H67.8047C68.1172 14.7988 68.4297 14.7012 68.7422 14.5059C69.0547 14.291 69.4062 14.1836 69.7969 14.1836C69.9336 14.0078 70.1191 13.8613 70.3535 13.7441C70.5879 13.6074 70.832 13.5 71.0859 13.4219C71.3594 13.3438 71.623 13.2949 71.877 13.2754C72.1504 13.2363 72.4043 13.2168 72.6387 13.2168C72.7168 13.0801 72.834 12.9922 72.9902 12.9531C73.1465 12.8945 73.3027 12.8457 73.459 12.8066C73.6348 12.748 73.791 12.6992 73.9277 12.6602C74.084 12.6016 74.2109 12.5039 74.3086 12.3672C74.4648 12.4062 74.6113 12.4258 74.748 12.4258C75.002 12.4258 75.2461 12.3965 75.4805 12.3379C75.7148 12.2598 75.9492 12.1816 76.1836 12.1035C76.418 12.0059 76.6523 11.918 76.8867 11.8398C77.1406 11.7617 77.4043 11.7227 77.6777 11.7227C77.7754 11.7227 77.873 11.7324 77.9707 11.752C78.0684 11.752 78.166 11.752 78.2637 11.752C78.4199 11.752 78.5078 11.6934 78.5273 11.5762C78.5664 11.459 78.6348 11.3711 78.7324 11.3125C78.791 11.332 78.8984 11.3418 79.0547 11.3418C79.4453 11.3418 79.8262 11.3125 80.1973 11.2539C80.5684 11.1758 80.9492 11.1367 81.3398 11.1367C81.5156 11.1367 81.6914 11.1465 81.8672 11.166C82.043 11.1855 82.2188 11.2344 82.3945 11.3125C82.4336 11.2539 82.4727 11.2051 82.5117 11.166C82.5508 11.127 82.5801 11.0781 82.5996 11.0195C83.5566 11.0781 84.4551 11.2734 85.2949 11.6055C86.1543 11.9375 87.043 12.2305 87.9609 12.4844C88.0781 12.6602 88.2148 12.8164 88.3711 12.9531L88.8691 13.3633C89.0449 13.5 89.2109 13.6367 89.3672 13.7734C89.5234 13.9102 89.6602 14.0762 89.7773 14.2715V14.7109ZM106.711 23.4707C106.711 23.6855 106.633 23.8516 106.477 23.9688C106.32 24.0664 106.242 24.2031 106.242 24.3789C106.242 24.457 106.281 24.5547 106.359 24.6719C106.086 24.6719 105.9 24.7598 105.803 24.9355C105.705 25.1113 105.607 25.3066 105.51 25.5215H105.129C105.031 25.5215 104.953 25.541 104.895 25.5801C104.836 25.6191 104.777 25.6777 104.719 25.7559C104.68 25.8145 104.621 25.9121 104.543 26.0488C104.172 26.127 103.811 26.2539 103.459 26.4297C103.127 26.5859 102.795 26.7617 102.463 26.957C102.15 27.1328 101.828 27.3184 101.496 27.5137C101.164 27.6895 100.822 27.8359 100.471 27.9531C100.295 28.2461 100.041 28.4805 99.709 28.6562H99.6211C99.5234 28.6758 99.4355 28.666 99.3574 28.627C99.2988 28.5684 99.2207 28.5391 99.123 28.5391C99.0645 28.5391 99.0254 28.5488 99.0059 28.5684C98.4199 28.959 97.7656 29.1543 97.043 29.1543C96.8477 29.1543 96.6621 29.1445 96.4863 29.125C96.3105 29.0859 96.125 29.0664 95.9297 29.0664C95.8711 29.0664 95.832 29.0859 95.8125 29.125L95.7539 29.2422C95.7344 29.2812 95.7051 29.3203 95.666 29.3594C95.6465 29.3984 95.5781 29.418 95.4609 29.418C95.2461 29.418 95.0312 29.3887 94.8164 29.3301C94.6016 29.2715 94.377 29.2617 94.1426 29.3008C93.6934 29.0469 93.3418 28.8027 93.0879 28.5684C92.834 28.334 92.5996 27.9824 92.3848 27.5137C92.2871 27.2988 92.1504 27.0938 91.9746 26.8984C91.8184 26.7031 91.7012 26.4883 91.623 26.2539C91.6035 26.1758 91.5742 26.0391 91.5352 25.8438C91.4961 25.6289 91.457 25.4043 91.418 25.1699C91.3789 24.9355 91.3398 24.7109 91.3008 24.4961C91.2812 24.2812 91.2715 24.1348 91.2715 24.0566C91.2715 23.8223 91.2812 23.5977 91.3008 23.3828C91.3398 23.1484 91.3789 22.9141 91.418 22.6797C91.5352 21.9375 91.6133 21.1953 91.6523 20.4531C91.7109 19.6914 91.877 18.959 92.1504 18.2559C92.1113 18.041 92.0918 17.8359 92.0918 17.6406V16.9961C92.0918 16.625 92.043 16.3125 91.9453 16.0586C92.1016 15.8047 92.1797 15.5215 92.1797 15.209C92.1797 14.8574 92.0332 14.6523 91.7402 14.5938V14.5059C91.7402 14.0957 91.6035 13.7734 91.3301 13.5391C91.3301 12.8555 91.4961 12.3477 91.8281 12.0156C92.1797 11.6641 92.6387 11.3613 93.2051 11.1074C93.2832 10.9902 93.3125 10.8926 93.293 10.8145C93.4297 10.8535 93.5566 10.8926 93.6738 10.9316C93.791 10.9707 93.9082 10.9902 94.0254 10.9902C94.2207 10.9902 94.3965 10.9609 94.5527 10.9023C94.6113 11.1367 94.7578 11.2832 94.9922 11.3418C95.2461 11.3809 95.4512 11.4395 95.6074 11.5176V11.8984C95.6074 12.5039 95.7539 13.0801 96.0469 13.627C95.9688 13.7832 95.9199 13.9492 95.9004 14.125C95.8809 14.3008 95.8711 14.4668 95.8711 14.623C95.8711 14.8574 95.8809 15.0918 95.9004 15.3262C95.9199 15.5605 95.9297 15.7852 95.9297 16C95.9297 16.2344 95.9004 16.4688 95.8418 16.7031C95.8027 16.9375 95.6953 17.1426 95.5195 17.3184C95.5 17.5723 95.4805 17.8652 95.4609 18.1973C95.4609 18.5098 95.4414 18.832 95.4023 19.1641C95.3828 19.4961 95.334 19.8184 95.2559 20.1309C95.1777 20.4434 95.0605 20.6973 94.9043 20.8926C94.8848 21.1855 94.8652 21.4883 94.8457 21.8008C94.8457 22.0938 94.8457 22.377 94.8457 22.6504C94.8457 23.0801 94.8652 23.5879 94.9043 24.1738C94.9629 24.7598 95.0996 25.248 95.3145 25.6387C95.4121 25.7949 95.5977 25.9121 95.8711 25.9902C96.1641 26.0684 96.3984 26.1074 96.5742 26.1074C96.7891 26.1074 97.0039 26.0781 97.2188 26.0195C97.4531 25.9414 97.6191 25.8145 97.7168 25.6387C97.834 25.6582 97.9121 25.7168 97.9512 25.8145C97.9902 25.9121 98.0586 25.9902 98.1562 26.0488C99.2695 25.5801 100.383 25.1309 101.496 24.7012C102.609 24.2715 103.703 23.7734 104.777 23.207C104.934 23.2852 105.1 23.3242 105.275 23.3242C105.471 23.3242 105.666 23.3047 105.861 23.2656C106.057 23.2266 106.252 23.207 106.447 23.207H106.652C106.691 23.3242 106.711 23.4121 106.711 23.4707ZM120.803 10.8438C120.803 11.0195 120.725 11.166 120.568 11.2832C120.432 11.4004 120.363 11.4883 120.363 11.5469C120.363 11.6641 120.383 11.752 120.422 11.8105C120.461 11.8496 120.48 11.8984 120.48 11.957V12.1035C120.285 12.2988 120.139 12.5137 120.041 12.748C119.943 12.9629 119.865 13.1973 119.807 13.4512C119.748 13.6855 119.689 13.9297 119.631 14.1836C119.592 14.4375 119.533 14.6816 119.455 14.916C119.357 15.1504 119.23 15.3555 119.074 15.5312C118.918 15.6875 118.791 15.873 118.693 16.0879C118.537 16.4395 118.42 16.8008 118.342 17.1719C118.264 17.543 118.098 17.8848 117.844 18.1973V18.3438C117.824 18.4805 117.863 18.5977 117.961 18.6953C117.59 19.1836 117.297 19.7695 117.082 20.4531C116.867 21.1172 116.691 21.8203 116.555 22.5625C116.418 23.2852 116.301 24.0176 116.203 24.7598C116.105 25.4824 115.988 26.1367 115.852 26.7227C115.949 27.1523 116.096 27.5625 116.291 27.9531C116.506 28.3242 116.711 28.7148 116.906 29.125C117.297 29.2227 117.668 29.3594 118.02 29.5352C118.391 29.7109 118.654 29.9941 118.811 30.3848C118.771 30.7754 118.645 31.0781 118.43 31.293C118.215 31.5078 117.951 31.7324 117.639 31.9668C117.424 31.8887 117.248 31.8203 117.111 31.7617C116.975 31.7227 116.77 31.7227 116.496 31.7617C116.125 31.4688 115.773 31.2344 115.441 31.0586C115.129 30.8828 114.846 30.5801 114.592 30.1504C114.553 30.0918 114.494 30.0625 114.416 30.0625H114.152C114.055 29.8281 113.938 29.584 113.801 29.3301C113.664 29.0566 113.527 28.7832 113.391 28.5098C113.254 28.2168 113.137 27.9336 113.039 27.6602C112.941 27.3672 112.893 27.1035 112.893 26.8691C112.893 25.873 112.98 24.8867 113.156 23.9102C113.352 22.9141 113.449 21.9082 113.449 20.8926V20.5996C113.059 20.6973 112.668 20.834 112.277 21.0098C111.906 21.1855 111.525 21.3223 111.135 21.4199C110.998 21.459 110.92 21.5273 110.9 21.625C110.881 21.7227 110.822 21.8008 110.725 21.8594C110.529 21.8789 110.344 21.8984 110.168 21.918C109.992 21.918 109.826 21.918 109.67 21.918C109.338 21.918 108.986 21.9082 108.615 21.8887C108.264 21.8496 107.912 21.7812 107.561 21.6836C107.209 21.5859 106.877 21.4492 106.564 21.2734C106.271 21.0977 106.008 20.873 105.773 20.5996C105.734 20.6191 105.686 20.6387 105.627 20.6582C105.568 20.6777 105.51 20.6875 105.451 20.6875C105.393 20.6875 105.334 20.6777 105.275 20.6582C105.217 20.6387 105.168 20.6191 105.129 20.5996C104.973 20.3848 104.846 20.1504 104.748 19.8965L104.455 19.1348C104.357 18.8809 104.25 18.6367 104.133 18.4023C104.016 18.168 103.859 17.9531 103.664 17.7578C103.605 17.4062 103.576 17.0645 103.576 16.7324C103.576 16.3809 103.605 16.0391 103.664 15.707C103.703 15.375 103.771 15.043 103.869 14.7109C103.791 14.4766 103.742 14.2324 103.723 13.9785C103.684 13.7246 103.664 13.4707 103.664 13.2168C103.664 12.9238 103.693 12.6211 103.752 12.3086C103.811 11.9961 103.908 11.7129 104.045 11.459C104.182 11.1855 104.377 10.9609 104.631 10.7852C104.865 10.6094 105.158 10.5215 105.51 10.5215C105.9 10.5215 106.262 10.6289 106.594 10.8438C106.926 11.0391 107.248 11.2441 107.561 11.459C107.6 11.6934 107.629 11.9277 107.648 12.1621C107.668 12.377 107.678 12.6113 107.678 12.8652C107.678 13.334 107.648 13.8125 107.59 14.3008C107.551 14.7695 107.531 15.248 107.531 15.7363C107.531 16.2441 107.59 16.7227 107.707 17.1719C107.844 17.6016 108.078 18.0117 108.41 18.4023H108.527C108.684 18.3828 108.82 18.4121 108.938 18.4902C109.055 18.5684 109.191 18.6074 109.348 18.6074C109.484 18.6074 109.592 18.5586 109.67 18.4609C109.748 18.3438 109.846 18.2852 109.963 18.2852C110.08 18.2852 110.168 18.3047 110.227 18.3438C110.285 18.3828 110.334 18.4023 110.373 18.4023C110.588 18.4023 110.832 18.3242 111.105 18.168C111.379 18.0117 111.555 17.8359 111.633 17.6406C111.711 17.6992 111.809 17.7285 111.926 17.7285C112.082 17.7285 112.229 17.6797 112.365 17.582C112.502 17.4844 112.678 17.4355 112.893 17.4355C113.01 17.4355 113.049 17.3672 113.01 17.2305C112.99 17.0742 113.029 16.9766 113.127 16.9375C113.361 16.8398 113.615 16.7031 113.889 16.5273C114.182 16.332 114.416 16.2148 114.592 16.1758C114.689 15.9219 114.807 15.6875 114.943 15.4727C115.1 15.2383 115.256 15.0234 115.412 14.8281C115.471 14.3789 115.588 13.9492 115.764 13.5391C115.939 13.1289 116.125 12.7188 116.32 12.3086C116.516 11.8984 116.701 11.4883 116.877 11.0781C117.053 10.668 117.17 10.2383 117.229 9.78906C117.443 9.57422 117.609 9.33984 117.727 9.08594C117.863 8.83203 117.98 8.57812 118.078 8.32422C118.273 8.26562 118.518 8.23633 118.811 8.23633C119.104 8.2168 119.357 8.20703 119.572 8.20703H120.07C120.129 8.32422 120.207 8.43164 120.305 8.5293L120.598 8.82227C120.422 9.0957 120.334 9.36914 120.334 9.64258C120.334 9.85742 120.383 10.0723 120.48 10.2871C120.578 10.4824 120.686 10.668 120.803 10.8438ZM175.676 17.3477C175.637 17.582 175.568 17.8457 175.471 18.1387C175.393 18.4316 175.275 18.7051 175.119 18.959C174.982 19.1934 174.807 19.3984 174.592 19.5742C174.377 19.7305 174.123 19.8086 173.83 19.8086C173.615 19.8086 173.4 19.7891 173.186 19.75C172.971 19.6914 172.746 19.6621 172.512 19.6621C172.414 19.6621 172.307 19.7012 172.189 19.7793C172.092 19.8379 171.994 19.8672 171.896 19.8672C171.799 19.8672 171.711 19.8574 171.633 19.8379C171.574 19.7988 171.496 19.7793 171.398 19.7793C171.34 19.7793 171.232 19.7988 171.076 19.8379C170.92 19.877 170.754 19.916 170.578 19.9551C170.402 19.9941 170.236 20.043 170.08 20.1016C169.924 20.1406 169.816 20.1699 169.758 20.1895C169.23 20.3652 168.703 20.5215 168.176 20.6582C167.648 20.7949 167.102 20.8828 166.535 20.9219C166.418 20.8828 166.242 20.8438 166.008 20.8047C165.773 20.7461 165.598 20.7168 165.48 20.7168C165.246 20.7168 165.09 20.8145 165.012 21.0098C164.953 21.2051 164.826 21.3516 164.631 21.4492C164.396 21.5859 164.104 21.6641 163.752 21.6836C163.4 21.7031 163.049 21.7324 162.697 21.7715C162.346 21.8105 162.014 21.8887 161.701 22.0059C161.408 22.1035 161.193 22.2988 161.057 22.5918C160.959 22.5723 160.852 22.5625 160.734 22.5625C160.637 22.543 160.529 22.5332 160.412 22.5332C159.787 22.5332 159.201 22.6602 158.654 22.9141C158.107 23.1484 157.551 23.3633 156.984 23.5586C157.082 23.7344 157.15 23.9492 157.189 24.2031C157.229 24.457 157.268 24.7109 157.307 24.9648C157.346 25.1992 157.395 25.4336 157.453 25.668C157.531 25.8828 157.658 26.0488 157.834 26.166C157.834 26.2832 157.805 26.3809 157.746 26.459C157.707 26.5371 157.658 26.6055 157.6 26.6641L157.395 26.8691C157.336 26.9277 157.297 27.0156 157.277 27.1328C157.219 27.3672 157.189 27.6113 157.189 27.8652C157.189 28.0996 157.053 28.2754 156.779 28.3926C156.799 28.4512 156.809 28.5586 156.809 28.7148C156.809 28.9102 156.779 29.0957 156.721 29.2715C156.662 29.4473 156.643 29.6426 156.662 29.8574C156.33 30.2285 156.047 30.6094 155.812 31C155.598 31.3906 155.432 31.8105 155.314 32.2598C154.592 32.9824 153.85 33.7051 153.088 34.4277C152.346 35.1699 151.574 35.8828 150.773 36.5664C149.992 37.25 149.182 37.8945 148.342 38.5C147.502 39.125 146.633 39.6719 145.734 40.1406H145.529C145.08 40.1406 144.729 40.2188 144.475 40.375C144.221 40.5312 143.898 40.668 143.508 40.7852C143.215 40.707 142.863 40.668 142.453 40.668C142.219 40.668 141.975 40.6777 141.721 40.6973C141.486 40.7168 141.242 40.7266 140.988 40.7266C140.656 40.7266 140.354 40.6875 140.08 40.6094C139.826 40.5312 139.572 40.4434 139.318 40.3457C139.084 40.248 138.84 40.1504 138.586 40.0527C138.332 39.9551 138.059 39.8867 137.766 39.8477C136.555 38.6367 135.598 37.2207 134.895 35.5996C134.191 33.998 133.84 32.3477 133.84 30.6484C133.84 29.8672 133.947 29.1055 134.162 28.3633C134.377 27.6016 134.484 26.8398 134.484 26.0781C134.836 25.375 135.139 24.6523 135.393 23.9102C135.666 23.168 135.939 22.4258 136.213 21.6836C136.486 20.9414 136.779 20.2188 137.092 19.5156C137.424 18.793 137.814 18.1094 138.264 17.4648C138.361 16.957 138.518 16.5176 138.732 16.1465C138.947 15.7754 139.182 15.3652 139.436 14.916C139.436 14.4863 139.523 14.0957 139.699 13.7441C139.895 13.373 140.012 12.9629 140.051 12.5137C140.363 12.2207 140.617 11.8887 140.812 11.5176C141.008 11.1465 141.193 10.7656 141.369 10.375C141.545 9.98438 141.74 9.61328 141.955 9.26172C142.189 8.89062 142.502 8.57812 142.893 8.32422C142.932 8.1875 142.951 8.04102 142.951 7.88477C142.971 7.70898 143.02 7.57227 143.098 7.47461L143.713 6.80078C143.908 6.54688 144.084 6.29297 144.24 6.03906C144.416 5.76562 144.602 5.52148 144.797 5.30664C144.914 5.18945 145.041 5.0918 145.178 5.01367C145.314 4.93555 145.432 4.84766 145.529 4.75C145.627 4.65234 145.656 4.52539 145.617 4.36914C145.598 4.21289 145.637 4.08594 145.734 3.98828C145.773 3.94922 145.832 3.91016 145.91 3.87109C145.988 3.83203 146.057 3.79297 146.115 3.75391C146.369 3.57812 146.584 3.40234 146.76 3.22656C146.936 3.05078 147.18 2.92383 147.492 2.8457C147.766 2.63086 148.01 2.41602 148.225 2.20117C148.459 1.98633 148.693 1.79102 148.928 1.61523C149.162 1.43945 149.416 1.30273 149.689 1.20508C149.963 1.08789 150.305 1.0293 150.715 1.0293C150.793 1.0293 150.871 1.03906 150.949 1.05859C151.027 1.05859 151.105 1.05859 151.184 1.05859C151.984 1.80078 152.482 2.70898 152.678 3.7832C152.463 4.05664 152.287 4.34961 152.15 4.66211C152.033 4.97461 151.896 5.28711 151.74 5.59961C151.408 5.7168 151.096 5.89258 150.803 6.12695C150.51 6.3418 150.217 6.56641 149.924 6.80078C149.65 7.03516 149.357 7.24023 149.045 7.41602C148.752 7.5918 148.42 7.67969 148.049 7.67969C147.893 7.81641 147.639 8.04102 147.287 8.35352C146.955 8.64648 146.604 8.95898 146.232 9.29102C145.881 9.62305 145.549 9.93555 145.236 10.2285C144.943 10.5215 144.758 10.7266 144.68 10.8438C144.621 10.9414 144.572 11.0293 144.533 11.1074C144.494 11.1855 144.455 11.2734 144.416 11.3711L143.654 12.6602C143.225 13.4023 142.785 14.1348 142.336 14.8574C141.887 15.5605 141.496 16.3027 141.164 17.084C141.008 17.4355 140.881 17.7871 140.783 18.1387C140.686 18.4902 140.588 18.8613 140.49 19.252C140.451 19.3691 140.402 19.4863 140.344 19.6035C140.285 19.7207 140.236 19.8281 140.197 19.9258C139.982 20.3359 139.807 20.7168 139.67 21.0684C139.533 21.4199 139.455 21.8301 139.436 22.2988C138.947 23.3926 138.488 24.4961 138.059 25.6094C137.648 26.7031 137.336 27.8359 137.121 29.0078C137.238 29.3984 137.287 29.7988 137.268 30.209C137.268 30.5996 137.268 30.9902 137.268 31.3809C137.268 31.8691 137.297 32.2695 137.355 32.582C137.434 32.9141 137.531 33.207 137.648 33.4609C137.785 33.7344 137.932 34.0078 138.088 34.2812C138.244 34.5742 138.41 34.916 138.586 35.3066C138.879 35.541 139.143 35.7852 139.377 36.0391C139.611 36.3125 139.836 36.6055 140.051 36.918C140.793 37.2891 141.545 37.4746 142.307 37.4746C142.854 37.4746 143.41 37.3867 143.977 37.2109C144.543 37.0352 145.09 36.8105 145.617 36.5371C146.164 36.2832 146.691 36 147.199 35.6875C147.707 35.375 148.195 35.0723 148.664 34.7793C149.484 34.291 150.197 33.7637 150.803 33.1973C151.408 32.6309 151.955 32.0352 152.443 31.4102C152.951 30.7852 153.42 30.1211 153.85 29.418C154.279 28.6953 154.729 27.9336 155.197 27.1328C155.217 27.0352 155.256 26.918 155.314 26.7812L155.49 26.3418C155.549 26.1855 155.598 26.0488 155.637 25.9316C155.695 25.7949 155.725 25.707 155.725 25.668C155.725 25.5117 155.686 25.4043 155.607 25.3457C155.549 25.2676 155.52 25.1895 155.52 25.1113C155.52 24.9551 155.559 24.8477 155.637 24.7891C155.715 24.7305 155.803 24.6719 155.9 24.6133C156.018 24.5547 156.115 24.4863 156.193 24.4082C156.291 24.3301 156.34 24.1836 156.34 23.9688C156.301 23.9492 156.232 23.9395 156.135 23.9395C156.037 23.9395 155.939 23.9492 155.842 23.9688C155.744 23.9883 155.646 23.998 155.549 23.998C155.314 23.998 155.119 23.9199 154.963 23.7637C154.865 23.8027 154.768 23.8711 154.67 23.9688C154.572 24.0469 154.475 24.1348 154.377 24.2324C154.299 24.3301 154.221 24.418 154.143 24.4961C154.064 24.5742 153.996 24.6133 153.938 24.6133C153.84 24.6133 153.762 24.5938 153.703 24.5547C153.664 24.5156 153.605 24.4961 153.527 24.4961C153.195 24.4961 152.902 24.5742 152.648 24.7305C152.395 24.8867 152.121 25.0137 151.828 25.1113C151.77 25.1113 151.711 25.1113 151.652 25.1113C151.594 25.0918 151.535 25.082 151.477 25.082C151.262 25.082 151.047 25.1211 150.832 25.1992C150.637 25.2578 150.441 25.3262 150.246 25.4043C150.07 25.4824 149.885 25.5508 149.689 25.6094C149.494 25.668 149.299 25.6875 149.104 25.668C148.674 25.8242 148.273 25.9902 147.902 26.166C147.551 26.3418 147.141 26.4102 146.672 26.3711C146.535 26.4297 146.389 26.498 146.232 26.5762C146.096 26.6348 145.959 26.7129 145.822 26.8105C145.705 26.8496 145.617 26.8691 145.559 26.8691C145.461 26.8691 145.383 26.8203 145.324 26.7227C145.168 26.8984 144.963 27.0254 144.709 27.1035C144.455 27.1621 144.191 27.2207 143.918 27.2793C143.645 27.3184 143.381 27.377 143.127 27.4551C142.893 27.5137 142.707 27.6406 142.57 27.8359C142.355 27.6602 142.102 27.5723 141.809 27.5723C141.516 27.5723 141.232 27.6309 140.959 27.748C140.686 27.8457 140.393 27.8945 140.08 27.8945C139.963 27.8945 139.885 27.875 139.846 27.8359C139.768 27.6211 139.68 27.4062 139.582 27.1914C139.484 26.9766 139.328 26.8203 139.113 26.7227C139.074 26.5078 139.035 26.3027 138.996 26.1074C138.977 25.8926 138.967 25.6875 138.967 25.4922C138.967 24.9648 139.123 24.4863 139.436 24.0566C139.709 23.959 139.982 23.8809 140.256 23.8223C140.549 23.7441 140.832 23.6562 141.105 23.5586C141.32 23.5977 141.535 23.627 141.75 23.6465C141.965 23.666 142.18 23.6758 142.395 23.6758C143.195 23.6758 143.977 23.5781 144.738 23.3828C145.5 23.168 146.252 22.9434 146.994 22.709C147.697 22.4941 148.41 22.2988 149.133 22.123C149.855 21.9473 150.578 21.752 151.301 21.5371C151.984 21.3613 152.658 21.166 153.322 20.9512C153.986 20.7168 154.68 20.5703 155.402 20.5117C155.871 20.1797 156.438 19.9551 157.102 19.8379C157.785 19.7207 158.41 19.5938 158.977 19.457C159.875 19.2422 160.764 19.0273 161.643 18.8125C162.521 18.5781 163.42 18.373 164.338 18.1973C165.354 17.9824 166.34 17.7188 167.297 17.4062C168.273 17.0938 169.25 16.7617 170.227 16.4102H170.52C170.852 16.4102 171.193 16.3711 171.545 16.293C171.896 16.2148 172.248 16.1758 172.6 16.1758C172.697 16.1758 172.775 16.1855 172.834 16.2051C172.912 16.2051 172.99 16.2051 173.068 16.2051C173.127 16.2051 173.273 16.166 173.508 16.0879C173.742 15.9902 173.908 15.9219 174.006 15.8828C174.26 16.1562 174.543 16.4004 174.855 16.6152C175.168 16.8301 175.441 17.0742 175.676 17.3477ZM200.637 25.9023C200.598 26.1953 200.49 26.4199 200.314 26.5762C200.158 26.7324 199.973 26.8789 199.758 27.0156C199.66 26.9961 199.562 26.9863 199.465 26.9863C199.387 26.9668 199.299 26.957 199.201 26.957C198.596 26.9375 198.02 27.0156 197.473 27.1914C196.945 27.3672 196.398 27.4941 195.832 27.5723C195.637 27.6113 195.451 27.6309 195.275 27.6309C195.119 27.6113 194.953 27.6211 194.777 27.6602C194.152 27.7578 193.488 27.8359 192.785 27.8945C192.082 27.9531 191.379 28.0312 190.676 28.1289C189.973 28.207 189.279 28.3145 188.596 28.4512C187.932 28.5684 187.307 28.7441 186.721 28.9785C186.662 28.9395 186.604 28.9004 186.545 28.8613C186.486 28.8027 186.418 28.7734 186.34 28.7734C186.145 28.7734 185.959 28.8027 185.783 28.8613C185.607 28.9199 185.432 28.9395 185.256 28.9199C185.061 29.0371 184.846 29.125 184.611 29.1836C184.396 29.2227 184.172 29.2617 183.938 29.3008C183.723 29.3203 183.508 29.3594 183.293 29.418C183.078 29.4766 182.873 29.584 182.678 29.7402C182.521 29.6621 182.326 29.623 182.092 29.623C181.877 29.6035 181.73 29.5254 181.652 29.3887C181.203 29.6035 180.725 29.7402 180.217 29.7988C179.729 29.8574 179.23 29.877 178.723 29.8574C178.391 29.8379 178.01 29.7891 177.58 29.7109C177.15 29.6328 176.721 29.5254 176.291 29.3887C175.861 29.2324 175.461 29.0566 175.09 28.8613C174.719 28.6465 174.436 28.3926 174.24 28.0996C174.104 27.9043 174.006 27.6895 173.947 27.4551C173.889 27.2207 173.752 27.0449 173.537 26.9277C173.596 26.4785 173.664 26.0391 173.742 25.6094C173.82 25.1797 173.898 24.7402 173.977 24.291C174.367 23.959 174.738 23.6074 175.09 23.2363C175.441 22.8652 175.773 22.4746 176.086 22.0645C176.457 21.8887 176.799 21.6738 177.111 21.4199C177.443 21.166 177.766 20.9121 178.078 20.6582C178.41 20.3848 178.732 20.1211 179.045 19.8672C179.377 19.6133 179.729 19.3887 180.1 19.1934C180.158 19.0566 180.236 18.9492 180.334 18.8711C180.451 18.7734 180.568 18.6855 180.686 18.6074C180.803 18.5098 180.91 18.4121 181.008 18.3145C181.105 18.1973 181.174 18.0605 181.213 17.9043C181.896 17.4941 182.492 16.9766 183 16.3516C183.508 15.7266 183.84 15.0234 183.996 14.2422C183.664 13.9688 183.283 13.793 182.854 13.7148C182.443 13.6172 182.014 13.5488 181.564 13.5098C181.174 13.4902 180.764 13.4902 180.334 13.5098C179.924 13.5293 179.504 13.5195 179.074 13.4805C178.645 13.6172 178.195 13.7051 177.727 13.7441C177.277 13.7832 176.828 13.8223 176.379 13.8613C175.93 13.8809 175.48 13.9395 175.031 14.0371C174.602 14.1152 174.182 14.2715 173.771 14.5059C173.693 14.5059 173.615 14.4961 173.537 14.4766C173.479 14.457 173.41 14.4473 173.332 14.4473C172.707 14.4277 172.121 14.5547 171.574 14.8281C171.027 15.082 170.49 15.3359 169.963 15.5898C169.924 15.668 169.904 15.7266 169.904 15.7656C169.904 15.8828 169.924 16 169.963 16.1172C170.021 16.2148 170.051 16.3223 170.051 16.4395C170.031 16.459 170.021 16.4785 170.021 16.498C170.021 16.5176 170.012 16.5371 169.992 16.5566C169.973 16.6543 169.943 16.7422 169.904 16.8203C169.885 16.8984 169.855 16.9863 169.816 17.084C169.602 17.709 169.484 18.3242 169.465 18.9297C169.445 19.4375 169.445 19.9355 169.465 20.4238C169.484 20.9121 169.484 21.4102 169.465 21.918C169.426 22.543 169.328 23.1289 169.172 23.6758C169.27 24.1445 169.357 24.6426 169.436 25.1699C169.514 25.6777 169.611 26.1855 169.729 26.6934C169.846 27.2012 169.982 27.6992 170.139 28.1875C170.314 28.6562 170.539 29.1055 170.812 29.5352C170.793 29.5742 170.803 29.6035 170.842 29.623C170.881 29.6426 170.92 29.6523 170.959 29.6523H171.193C171.291 29.6523 171.33 29.6914 171.311 29.7695C171.35 29.8281 171.379 29.8867 171.398 29.9453C171.418 29.9844 171.457 30.0234 171.516 30.0625C171.555 30.1211 171.555 30.1992 171.516 30.2969C171.496 30.6875 171.398 31.0488 171.223 31.3809C171.047 31.7129 170.939 32.0742 170.9 32.4648C170.666 32.5234 170.451 32.5527 170.256 32.5527C169.924 32.5332 169.631 32.4355 169.377 32.2598C169.123 32.1035 168.889 31.9082 168.674 31.6738C168.459 31.4395 168.254 31.2051 168.059 30.9707C167.863 30.7168 167.648 30.502 167.414 30.3262C167.277 29.7793 167.141 29.1738 167.004 28.5098C166.887 27.8457 166.682 27.2793 166.389 26.8105C166.467 26.6348 166.506 26.4199 166.506 26.166C166.525 25.7754 166.486 25.3945 166.389 25.0234C166.311 24.6328 166.291 24.2422 166.33 23.8516C166.33 23.6367 166.35 23.4219 166.389 23.207C166.447 22.9922 166.486 22.7773 166.506 22.5625C166.525 22.2305 166.486 21.9082 166.389 21.5957C166.311 21.2832 166.281 20.9609 166.301 20.6289C166.32 20.4727 166.35 20.3262 166.389 20.1895C166.447 20.0332 166.525 19.8965 166.623 19.7793C166.525 19.5449 166.496 19.3203 166.535 19.1055C166.555 18.7734 166.594 18.4609 166.652 18.168C166.711 17.875 166.75 17.582 166.77 17.2891C166.77 17.1328 166.76 16.9863 166.74 16.8496C166.721 16.6934 166.691 16.5469 166.652 16.4102L166.389 16.3223C166.271 16.3223 166.154 16.3516 166.037 16.4102C165.939 16.4688 165.852 16.5371 165.773 16.6152C165.695 16.6934 165.627 16.7617 165.568 16.8203C165.51 16.8594 165.451 16.8789 165.393 16.8789C165.354 16.8789 165.305 16.8789 165.246 16.8789C165.207 16.8594 165.168 16.8496 165.129 16.8496C165.09 16.8496 165.012 16.8887 164.895 16.9668C164.797 17.0449 164.67 17.1328 164.514 17.2305C164.377 17.3086 164.24 17.3965 164.104 17.4941C163.967 17.5723 163.859 17.6211 163.781 17.6406C163.566 17.6016 163.391 17.5332 163.254 17.4355C163.137 17.3184 163.02 17.2109 162.902 17.1133C162.805 16.9961 162.697 16.8984 162.58 16.8203C162.463 16.7227 162.316 16.6836 162.141 16.7031C162.082 16.5859 162.053 16.459 162.053 16.3223C162.033 16.1855 162.033 16.0488 162.053 15.9121V15.4434C162.189 15.1895 162.375 14.9844 162.609 14.8281C162.824 14.6523 163.059 14.5059 163.312 14.3887L164.074 14.0371C164.328 13.9199 164.562 13.7734 164.777 13.5977H165.041C165.393 13.6172 165.695 13.5488 165.949 13.3926C166.223 13.2363 166.477 13.0605 166.711 12.8652C166.945 12.6504 167.18 12.4355 167.414 12.2207C167.668 12.0059 167.941 11.8398 168.234 11.7227C168.449 11.8203 168.674 11.9082 168.908 11.9863C169.143 12.0449 169.387 12.084 169.641 12.1035C169.895 12.1035 170.158 12.0645 170.432 11.9863C170.705 11.9082 170.92 11.7617 171.076 11.5469C171.174 11.5859 171.252 11.6152 171.311 11.6348C171.389 11.6348 171.477 11.6348 171.574 11.6348C171.867 11.6543 172.16 11.6152 172.453 11.5176C172.746 11.4004 173.029 11.2637 173.303 11.1074C173.693 11.127 174.074 11.1074 174.445 11.0488C174.836 10.9707 175.217 10.8926 175.588 10.8145C175.979 10.7363 176.359 10.668 176.73 10.6094C177.121 10.5312 177.512 10.502 177.902 10.5215C178.547 10.541 179.182 10.4824 179.807 10.3457C180.432 10.209 181.066 10.1602 181.711 10.1992C182.16 10.2188 182.6 10.2578 183.029 10.3164C183.479 10.3555 183.928 10.3652 184.377 10.3457C184.631 10.4629 184.855 10.5703 185.051 10.668C185.266 10.7461 185.529 10.7656 185.842 10.7266C186.467 11.2539 187.033 11.8691 187.541 12.5723V13.0703C187.521 13.5195 187.443 13.959 187.307 14.3887C187.17 14.8184 187.004 15.248 186.809 15.6777C186.633 16.0879 186.438 16.498 186.223 16.9082C186.008 17.2988 185.803 17.6895 185.607 18.0801C184.338 19.2324 183.068 20.375 181.799 21.5078C180.529 22.6406 179.221 23.7344 177.873 24.7891C177.834 24.9844 177.775 25.1602 177.697 25.3164C177.639 25.4727 177.6 25.6387 177.58 25.8145C177.58 25.9121 177.59 25.9902 177.609 26.0488C177.746 26.0879 177.863 26.166 177.961 26.2832C178.078 26.3809 178.117 26.5176 178.078 26.6934H178.342C178.439 26.6934 178.488 26.7324 178.488 26.8105L178.957 26.8398C179.699 26.8789 180.441 26.8594 181.184 26.7812C181.926 26.7031 182.668 26.6152 183.41 26.5176C184.172 26.4199 184.924 26.332 185.666 26.2539C186.408 26.1562 187.15 26.0977 187.893 26.0781C188.068 26.0195 188.254 25.9707 188.449 25.9316C188.645 25.8926 188.82 25.8145 188.977 25.6973H189.064C189.201 25.6973 189.299 25.7363 189.357 25.8145C189.436 25.8926 189.543 25.9414 189.68 25.9609C189.777 25.9609 189.875 25.9414 189.973 25.9023C190.09 25.8633 190.207 25.834 190.324 25.8145C190.598 25.7363 190.881 25.6875 191.174 25.668C191.486 25.6484 191.789 25.6191 192.082 25.5801C193.215 25.4824 194.338 25.4238 195.451 25.4043C196.564 25.3652 197.678 25.2188 198.791 24.9648C198.889 25.1016 199.025 25.1992 199.201 25.2578C199.377 25.2969 199.562 25.3457 199.758 25.4043C199.953 25.4434 200.129 25.4922 200.285 25.5508C200.461 25.6094 200.578 25.7266 200.637 25.9023ZM210.861 12.3672V12.4844C210.725 12.5234 210.656 12.6211 210.656 12.7773C210.441 12.875 210.217 12.9531 209.982 13.0117C209.748 13.0508 209.523 13.1191 209.309 13.2168C209.094 13.1973 208.869 13.1875 208.635 13.1875C208.42 13.168 208.205 13.1582 207.99 13.1582C207.404 13.1582 206.818 13.1777 206.232 13.2168C205.646 13.2559 205.061 13.2559 204.475 13.2168C204.201 13.373 203.898 13.5 203.566 13.5977C203.254 13.6758 202.951 13.7148 202.658 13.7148C202.424 13.7148 202.219 13.6855 202.043 13.627C201.574 13.8613 201.057 14.0566 200.49 14.2129C199.943 14.3691 199.387 14.5254 198.82 14.6816C198.254 14.8184 197.707 14.9844 197.18 15.1797C196.672 15.3555 196.223 15.6094 195.832 15.9414C195.793 16.2148 195.764 16.4883 195.744 16.7617C195.725 17.0156 195.715 17.2695 195.715 17.5234C195.715 17.7969 195.725 18.0508 195.744 18.2852C195.783 18.5195 195.852 18.7539 195.949 18.9883C196.047 19.0273 196.154 19.0566 196.271 19.0762C196.408 19.0957 196.525 19.1055 196.623 19.1055C196.721 19.1055 196.818 19.0957 196.916 19.0762C197.014 19.0371 197.082 18.9688 197.121 18.8711C197.414 18.832 197.707 18.8223 198 18.8418C198.293 18.8418 198.586 18.8418 198.879 18.8418C199.172 18.8418 199.455 18.832 199.729 18.8125C200.021 18.793 200.305 18.7441 200.578 18.666C200.891 18.5879 201.193 18.5391 201.486 18.5195C201.799 18.5 202.102 18.4805 202.395 18.4609C202.688 18.4414 202.99 18.4121 203.303 18.373C203.615 18.3145 203.938 18.207 204.27 18.0508C204.523 18.1484 204.777 18.1973 205.031 18.1973C205.305 18.1973 205.568 18.2168 205.822 18.2559C205.959 18.3535 206.066 18.4609 206.145 18.5781C206.242 18.6953 206.291 18.832 206.291 18.9883C206.291 19.2617 206.193 19.5352 205.998 19.8086C205.803 20.082 205.646 20.3359 205.529 20.5703H205.207C204.738 20.5703 204.279 20.6387 203.83 20.7754C203.4 20.8926 202.961 21.0391 202.512 21.2148C202.082 21.3711 201.643 21.5176 201.193 21.6543C200.764 21.7715 200.314 21.8301 199.846 21.8301C199.768 21.8301 199.719 21.8789 199.699 21.9766C199.699 22.0547 199.68 22.1133 199.641 22.1523C199.543 22.1328 199.396 22.123 199.201 22.123C198.752 22.123 198.322 22.1719 197.912 22.2695C197.502 22.3672 197.082 22.416 196.652 22.416C196.535 22.416 196.418 22.416 196.301 22.416C196.184 22.3965 196.066 22.377 195.949 22.3574C195.852 22.5137 195.725 22.6211 195.568 22.6797C195.412 22.7188 195.266 22.7969 195.129 22.9141C195.07 23.0898 195.031 23.3047 195.012 23.5586C195.012 23.8125 195.002 24.0762 194.982 24.3496C194.982 24.6035 194.963 24.8477 194.924 25.082C194.885 25.3164 194.807 25.502 194.689 25.6387C194.709 25.7363 194.787 25.7754 194.924 25.7559C195.061 25.7168 195.129 25.7754 195.129 25.9316C195.129 26.1074 195.109 26.293 195.07 26.4883C195.031 26.6836 195.012 26.8789 195.012 27.0742C195.012 27.4453 195.051 27.8555 195.129 28.3047C195.227 28.7344 195.363 29.1348 195.539 29.5059C195.734 29.877 195.988 30.1895 196.301 30.4434C196.613 30.6777 197.004 30.7949 197.473 30.7949C197.785 30.7949 198.078 30.7363 198.352 30.6191C198.625 30.502 198.85 30.3066 199.025 30.0332L199.172 30.0039C199.25 30.0039 199.318 30.0137 199.377 30.0332C199.455 30.0527 199.533 30.0625 199.611 30.0625C199.729 30.0625 199.875 29.9941 200.051 29.8574C200.246 29.7012 200.451 29.5254 200.666 29.3301C200.9 29.1348 201.135 28.9492 201.369 28.7734C201.604 28.5781 201.828 28.4414 202.043 28.3633C202.18 28.0898 202.307 27.8164 202.424 27.543C202.561 27.2695 202.756 27.0547 203.01 26.8984V26.0488C203.205 25.834 203.41 25.6387 203.625 25.4629C203.859 25.2871 204.035 25.0625 204.152 24.7891C204.25 24.8281 204.338 24.8574 204.416 24.877C204.514 24.8965 204.611 24.9062 204.709 24.9062C204.807 24.9062 204.904 24.8965 205.002 24.877C205.119 24.8574 205.227 24.8281 205.324 24.7891C205.48 25.0039 205.598 25.248 205.676 25.5215C205.773 25.7754 205.891 26.0195 206.027 26.2539C205.852 26.6055 205.646 27.0254 205.412 27.5137C205.178 28.002 204.924 28.4902 204.65 28.9785C204.377 29.4668 204.084 29.9355 203.771 30.3848C203.479 30.8145 203.186 31.1465 202.893 31.3809C202.834 31.4395 202.707 31.5078 202.512 31.5859C202.297 31.7422 202.102 31.8887 201.926 32.0254C201.75 32.1816 201.584 32.3574 201.428 32.5527C200.861 32.7285 200.314 32.9629 199.787 33.2559C199.279 33.5488 198.771 33.832 198.264 34.1055C198.029 34.0469 197.775 34.0176 197.502 34.0176C197.268 34.0176 197.033 34.0273 196.799 34.0469C196.564 34.0859 196.311 34.1055 196.037 34.1055C195.959 34.0078 195.842 33.9395 195.686 33.9004C195.549 33.8809 195.5 33.7832 195.539 33.6074C194.875 33.5684 194.338 33.3828 193.928 33.0508C193.518 32.7383 193.166 32.3477 192.873 31.8789C192.6 31.4102 192.375 30.9023 192.199 30.3555C192.023 29.8086 191.838 29.2812 191.643 28.7734V28.6855C191.643 28.5879 191.682 28.5293 191.76 28.5098C191.838 28.4902 191.877 28.4316 191.877 28.334C191.877 28.2949 191.867 28.2656 191.848 28.2461C191.789 28.0312 191.74 27.8457 191.701 27.6895C191.662 27.5332 191.643 27.3477 191.643 27.1328C191.643 26.8203 191.662 26.5176 191.701 26.2246C191.74 25.9121 191.76 25.5996 191.76 25.2871C191.76 24.9746 191.721 24.7012 191.643 24.4668C191.721 24.3691 191.789 24.2422 191.848 24.0859C191.887 23.9102 191.916 23.7344 191.936 23.5586C191.955 23.3828 191.965 23.207 191.965 23.0312C191.984 22.8555 192.014 22.6992 192.053 22.5625C191.975 22.3477 191.906 22.1621 191.848 22.0059C191.789 21.8301 191.76 21.625 191.76 21.3906V21.1855C191.955 20.8535 192.121 20.5117 192.258 20.1602C192.395 19.8086 192.541 19.4473 192.697 19.0762V18.9883C192.697 18.4219 192.678 17.8555 192.639 17.2891C192.6 16.7227 192.58 16.1562 192.58 15.5898V15.0332C192.58 14.8379 192.59 14.6523 192.609 14.4766C192.766 14.3984 192.883 14.291 192.961 14.1543C193.039 14.0176 193.156 13.9102 193.312 13.832H194.279L194.455 13.5391C194.514 13.4414 194.553 13.334 194.572 13.2168C194.787 13.1582 194.992 13.0801 195.188 12.9824C195.402 12.8652 195.598 12.748 195.773 12.6309C196.047 12.4746 196.291 12.3379 196.506 12.2207C196.74 12.084 196.965 11.9766 197.18 11.8984C197.414 11.8008 197.658 11.7227 197.912 11.6641C198.166 11.6055 198.459 11.5566 198.791 11.5176C198.947 11.5176 199.045 11.4883 199.084 11.4297C199.143 11.3711 199.221 11.3027 199.318 11.2246C199.553 11.2637 199.787 11.3027 200.021 11.3418C200.256 11.3613 200.49 11.3711 200.725 11.3711C201.193 11.3711 201.633 11.2832 202.043 11.1074C202.629 11.1074 203.205 11.0977 203.771 11.0781C204.357 11.0586 204.943 11.0488 205.529 11.0488C206.037 11.0488 206.545 11.0684 207.053 11.1074C207.561 11.1465 208.059 11.2148 208.547 11.3125C208.723 11.2539 208.918 11.2246 209.133 11.2246C209.367 11.2246 209.602 11.2539 209.836 11.3125C210.09 11.3516 210.334 11.3516 210.568 11.3125C210.588 11.5273 210.637 11.7129 210.715 11.8691C210.812 12.0059 210.861 12.1719 210.861 12.3672ZM228 12.3672V12.4844C227.863 12.5234 227.795 12.6211 227.795 12.7773C227.58 12.875 227.355 12.9531 227.121 13.0117C226.887 13.0508 226.662 13.1191 226.447 13.2168C226.232 13.1973 226.008 13.1875 225.773 13.1875C225.559 13.168 225.344 13.1582 225.129 13.1582C224.543 13.1582 223.957 13.1777 223.371 13.2168C222.785 13.2559 222.199 13.2559 221.613 13.2168C221.34 13.373 221.037 13.5 220.705 13.5977C220.393 13.6758 220.09 13.7148 219.797 13.7148C219.562 13.7148 219.357 13.6855 219.182 13.627C218.713 13.8613 218.195 14.0566 217.629 14.2129C217.082 14.3691 216.525 14.5254 215.959 14.6816C215.393 14.8184 214.846 14.9844 214.318 15.1797C213.811 15.3555 213.361 15.6094 212.971 15.9414C212.932 16.2148 212.902 16.4883 212.883 16.7617C212.863 17.0156 212.854 17.2695 212.854 17.5234C212.854 17.7969 212.863 18.0508 212.883 18.2852C212.922 18.5195 212.99 18.7539 213.088 18.9883C213.186 19.0273 213.293 19.0566 213.41 19.0762C213.547 19.0957 213.664 19.1055 213.762 19.1055C213.859 19.1055 213.957 19.0957 214.055 19.0762C214.152 19.0371 214.221 18.9688 214.26 18.8711C214.553 18.832 214.846 18.8223 215.139 18.8418C215.432 18.8418 215.725 18.8418 216.018 18.8418C216.311 18.8418 216.594 18.832 216.867 18.8125C217.16 18.793 217.443 18.7441 217.717 18.666C218.029 18.5879 218.332 18.5391 218.625 18.5195C218.938 18.5 219.24 18.4805 219.533 18.4609C219.826 18.4414 220.129 18.4121 220.441 18.373C220.754 18.3145 221.076 18.207 221.408 18.0508C221.662 18.1484 221.916 18.1973 222.17 18.1973C222.443 18.1973 222.707 18.2168 222.961 18.2559C223.098 18.3535 223.205 18.4609 223.283 18.5781C223.381 18.6953 223.43 18.832 223.43 18.9883C223.43 19.2617 223.332 19.5352 223.137 19.8086C222.941 20.082 222.785 20.3359 222.668 20.5703H222.346C221.877 20.5703 221.418 20.6387 220.969 20.7754C220.539 20.8926 220.1 21.0391 219.65 21.2148C219.221 21.3711 218.781 21.5176 218.332 21.6543C217.902 21.7715 217.453 21.8301 216.984 21.8301C216.906 21.8301 216.857 21.8789 216.838 21.9766C216.838 22.0547 216.818 22.1133 216.779 22.1523C216.682 22.1328 216.535 22.123 216.34 22.123C215.891 22.123 215.461 22.1719 215.051 22.2695C214.641 22.3672 214.221 22.416 213.791 22.416C213.674 22.416 213.557 22.416 213.439 22.416C213.322 22.3965 213.205 22.377 213.088 22.3574C212.99 22.5137 212.863 22.6211 212.707 22.6797C212.551 22.7188 212.404 22.7969 212.268 22.9141C212.209 23.0898 212.17 23.3047 212.15 23.5586C212.15 23.8125 212.141 24.0762 212.121 24.3496C212.121 24.6035 212.102 24.8477 212.062 25.082C212.023 25.3164 211.945 25.502 211.828 25.6387C211.848 25.7363 211.926 25.7754 212.062 25.7559C212.199 25.7168 212.268 25.7754 212.268 25.9316C212.268 26.1074 212.248 26.293 212.209 26.4883C212.17 26.6836 212.15 26.8789 212.15 27.0742C212.15 27.4453 212.189 27.8555 212.268 28.3047C212.365 28.7344 212.502 29.1348 212.678 29.5059C212.873 29.877 213.127 30.1895 213.439 30.4434C213.752 30.6777 214.143 30.7949 214.611 30.7949C214.924 30.7949 215.217 30.7363 215.49 30.6191C215.764 30.502 215.988 30.3066 216.164 30.0332L216.311 30.0039C216.389 30.0039 216.457 30.0137 216.516 30.0332C216.594 30.0527 216.672 30.0625 216.75 30.0625C216.867 30.0625 217.014 29.9941 217.189 29.8574C217.385 29.7012 217.59 29.5254 217.805 29.3301C218.039 29.1348 218.273 28.9492 218.508 28.7734C218.742 28.5781 218.967 28.4414 219.182 28.3633C219.318 28.0898 219.445 27.8164 219.562 27.543C219.699 27.2695 219.895 27.0547 220.148 26.8984V26.0488C220.344 25.834 220.549 25.6387 220.764 25.4629C220.998 25.2871 221.174 25.0625 221.291 24.7891C221.389 24.8281 221.477 24.8574 221.555 24.877C221.652 24.8965 221.75 24.9062 221.848 24.9062C221.945 24.9062 222.043 24.8965 222.141 24.877C222.258 24.8574 222.365 24.8281 222.463 24.7891C222.619 25.0039 222.736 25.248 222.814 25.5215C222.912 25.7754 223.029 26.0195 223.166 26.2539C222.99 26.6055 222.785 27.0254 222.551 27.5137C222.316 28.002 222.062 28.4902 221.789 28.9785C221.516 29.4668 221.223 29.9355 220.91 30.3848C220.617 30.8145 220.324 31.1465 220.031 31.3809C219.973 31.4395 219.846 31.5078 219.65 31.5859C219.436 31.7422 219.24 31.8887 219.064 32.0254C218.889 32.1816 218.723 32.3574 218.566 32.5527C218 32.7285 217.453 32.9629 216.926 33.2559C216.418 33.5488 215.91 33.832 215.402 34.1055C215.168 34.0469 214.914 34.0176 214.641 34.0176C214.406 34.0176 214.172 34.0273 213.938 34.0469C213.703 34.0859 213.449 34.1055 213.176 34.1055C213.098 34.0078 212.98 33.9395 212.824 33.9004C212.688 33.8809 212.639 33.7832 212.678 33.6074C212.014 33.5684 211.477 33.3828 211.066 33.0508C210.656 32.7383 210.305 32.3477 210.012 31.8789C209.738 31.4102 209.514 30.9023 209.338 30.3555C209.162 29.8086 208.977 29.2812 208.781 28.7734V28.6855C208.781 28.5879 208.82 28.5293 208.898 28.5098C208.977 28.4902 209.016 28.4316 209.016 28.334C209.016 28.2949 209.006 28.2656 208.986 28.2461C208.928 28.0312 208.879 27.8457 208.84 27.6895C208.801 27.5332 208.781 27.3477 208.781 27.1328C208.781 26.8203 208.801 26.5176 208.84 26.2246C208.879 25.9121 208.898 25.5996 208.898 25.2871C208.898 24.9746 208.859 24.7012 208.781 24.4668C208.859 24.3691 208.928 24.2422 208.986 24.0859C209.025 23.9102 209.055 23.7344 209.074 23.5586C209.094 23.3828 209.104 23.207 209.104 23.0312C209.123 22.8555 209.152 22.6992 209.191 22.5625C209.113 22.3477 209.045 22.1621 208.986 22.0059C208.928 21.8301 208.898 21.625 208.898 21.3906V21.1855C209.094 20.8535 209.26 20.5117 209.396 20.1602C209.533 19.8086 209.68 19.4473 209.836 19.0762V18.9883C209.836 18.4219 209.816 17.8555 209.777 17.2891C209.738 16.7227 209.719 16.1562 209.719 15.5898V15.0332C209.719 14.8379 209.729 14.6523 209.748 14.4766C209.904 14.3984 210.021 14.291 210.1 14.1543C210.178 14.0176 210.295 13.9102 210.451 13.832H211.418L211.594 13.5391C211.652 13.4414 211.691 13.334 211.711 13.2168C211.926 13.1582 212.131 13.0801 212.326 12.9824C212.541 12.8652 212.736 12.748 212.912 12.6309C213.186 12.4746 213.43 12.3379 213.645 12.2207C213.879 12.084 214.104 11.9766 214.318 11.8984C214.553 11.8008 214.797 11.7227 215.051 11.6641C215.305 11.6055 215.598 11.5566 215.93 11.5176C216.086 11.5176 216.184 11.4883 216.223 11.4297C216.281 11.3711 216.359 11.3027 216.457 11.2246C216.691 11.2637 216.926 11.3027 217.16 11.3418C217.395 11.3613 217.629 11.3711 217.863 11.3711C218.332 11.3711 218.771 11.2832 219.182 11.1074C219.768 11.1074 220.344 11.0977 220.91 11.0781C221.496 11.0586 222.082 11.0488 222.668 11.0488C223.176 11.0488 223.684 11.0684 224.191 11.1074C224.699 11.1465 225.197 11.2148 225.686 11.3125C225.861 11.2539 226.057 11.2246 226.271 11.2246C226.506 11.2246 226.74 11.2539 226.975 11.3125C227.229 11.3516 227.473 11.3516 227.707 11.3125C227.727 11.5273 227.775 11.7129 227.854 11.8691C227.951 12.0059 228 12.1719 228 12.3672ZM245.871 11.752C245.832 11.9863 245.773 12.1914 245.695 12.3672C245.637 12.5234 245.627 12.7383 245.666 13.0117C245.471 13.0312 245.314 13.0996 245.197 13.2168C245.1 13.3145 245.012 13.4316 244.934 13.5684C244.875 13.7051 244.807 13.8516 244.729 14.0078C244.67 14.1445 244.592 14.2715 244.494 14.3887C244.65 15.0918 244.738 15.8047 244.758 16.5273C244.777 17.25 244.826 17.9629 244.904 18.666C245.002 19.5645 245.148 20.4531 245.344 21.332C245.559 22.1914 245.666 23.0703 245.666 23.9688C245.666 24.2422 245.656 24.4961 245.637 24.7305C245.637 24.9648 245.637 25.209 245.637 25.4629C245.637 25.6191 245.637 25.7852 245.637 25.9609C245.656 26.1172 245.666 26.2734 245.666 26.4297C245.666 26.9961 245.588 27.5625 245.432 28.1289C245.295 28.6953 245.188 29.2617 245.109 29.8281C244.875 30.043 244.67 30.2773 244.494 30.5312C244.338 30.7852 244.172 31.0195 243.996 31.2344C243.82 31.4492 243.615 31.6348 243.381 31.791C243.146 31.9668 242.854 32.084 242.502 32.1426C242.443 32.3379 242.326 32.4844 242.15 32.582C241.994 32.6797 241.857 32.8164 241.74 32.9922H241.682C241.193 32.9922 240.773 32.9238 240.422 32.7871C240.07 32.6504 239.738 32.4941 239.426 32.3184C239.133 32.1426 238.83 31.957 238.518 31.7617C238.205 31.5664 237.844 31.4102 237.434 31.293C236.887 30.8438 236.389 30.3555 235.939 29.8281C235.49 29.2812 234.982 28.793 234.416 28.3633C234.279 27.9727 234.094 27.6504 233.859 27.3965C233.645 27.1426 233.43 26.8496 233.215 26.5176C233.117 26.3809 233.039 26.2539 232.98 26.1367C232.941 26.0195 232.883 25.8828 232.805 25.7266C232.746 25.5703 232.648 25.4629 232.512 25.4043C232.395 25.3457 232.287 25.2773 232.189 25.1992C232.033 24.5938 231.809 24.0371 231.516 23.5293C231.223 23.0215 230.881 22.5332 230.49 22.0645C230.373 22.2793 230.275 22.5137 230.197 22.7676C230.139 23.002 230.08 23.2461 230.021 23.5C229.963 23.7344 229.885 23.9785 229.787 24.2324C229.709 24.4668 229.602 24.6816 229.465 24.877V24.9648C229.465 25.0625 229.504 25.1211 229.582 25.1406C229.66 25.1602 229.699 25.2188 229.699 25.3164C229.699 25.3359 229.689 25.3555 229.67 25.375C229.67 25.3945 229.67 25.4141 229.67 25.4336C229.572 25.5117 229.494 25.6094 229.436 25.7266C229.396 25.8438 229.299 25.9121 229.143 25.9316C229.162 26.0293 229.172 26.127 229.172 26.2246V26.4883C229.172 27.0547 229.104 27.6211 228.967 28.1875C228.85 28.7539 228.791 29.3301 228.791 29.916V30.2969C228.791 30.4336 228.801 30.5605 228.82 30.6777C228.859 30.7949 228.918 30.9121 228.996 31.0293C229.074 31.1465 229.113 31.2539 229.113 31.3516C229.113 31.4883 229.055 31.6152 228.938 31.7324C229.074 31.8301 229.23 31.9375 229.406 32.0547C229.582 32.1719 229.738 32.2988 229.875 32.4355C230.031 32.5918 230.158 32.748 230.256 32.9043C230.354 33.0801 230.402 33.2656 230.402 33.4609C230.402 33.793 230.295 34.0273 230.08 34.1641C229.865 34.3008 229.602 34.4082 229.289 34.4863C228.996 34.5645 228.684 34.6328 228.352 34.6914C228.039 34.7695 227.775 34.8965 227.561 35.0723H227.473C227.238 35.0723 227.062 35.0039 226.945 34.8672C226.828 34.7305 226.652 34.6621 226.418 34.6621C226.047 34.0566 225.793 33.373 225.656 32.6113C225.52 31.8691 225.451 31.1562 225.451 30.4727C225.451 29.6328 225.529 28.793 225.686 27.9531C225.822 27.1133 225.998 26.2832 226.213 25.4629C226.408 24.6426 226.623 23.832 226.857 23.0312C227.111 22.2109 227.346 21.3906 227.561 20.5703L227.59 20.4824C227.59 20.3848 227.561 20.3164 227.502 20.2773C227.463 20.2383 227.443 20.1797 227.443 20.1016C227.443 20.0625 227.453 20.043 227.473 20.043C227.531 19.8477 227.59 19.6621 227.648 19.4863C227.727 19.3105 227.785 19.1152 227.824 18.9004C227.941 18.3535 228.02 17.7969 228.059 17.2305C228.117 16.6445 228.146 16.0684 228.146 15.502C228.166 14.9355 228.186 14.3691 228.205 13.8027C228.244 13.2168 228.312 12.6406 228.41 12.0742C228.566 11.918 228.713 11.752 228.85 11.5762C228.986 11.4004 229.162 11.2441 229.377 11.1074C229.768 11.127 230.158 11.1855 230.549 11.2832C230.939 11.3809 231.311 11.5371 231.662 11.752C231.896 12.5918 232.053 13.4316 232.131 14.2715C232.229 15.1113 232.385 15.9512 232.6 16.791V16.8789C232.6 16.9766 232.648 17.0254 232.746 17.0254C232.863 17.0059 232.951 17.0352 233.01 17.1133C232.971 17.1719 232.941 17.2402 232.922 17.3184C232.922 17.3965 232.922 17.4746 232.922 17.5527V18.0508C232.961 18.207 233.01 18.373 233.068 18.5488C233.127 18.7246 233.254 18.832 233.449 18.8711C233.547 19.4961 233.693 20.0723 233.889 20.5996C234.084 21.127 234.309 21.6348 234.562 22.123C234.816 22.6113 235.09 23.0996 235.383 23.5879C235.676 24.0566 235.979 24.5547 236.291 25.082C236.779 25.4531 237.199 25.8828 237.551 26.3711C237.902 26.8398 238.254 27.2988 238.605 27.748C238.977 28.1777 239.387 28.5586 239.836 28.8906C240.305 29.2227 240.91 29.4277 241.652 29.5059C241.75 29.4277 241.818 29.3203 241.857 29.1836L242.004 28.7734C242.062 28.6367 242.121 28.5195 242.18 28.4219C242.258 28.3047 242.365 28.2168 242.502 28.1582C242.541 27.6113 242.58 27.0547 242.619 26.4883C242.678 25.9219 242.805 25.3848 243 24.877C242.902 24.7012 242.854 24.4863 242.854 24.2324C242.854 24.0371 242.863 23.8516 242.883 23.6758C242.922 23.5 242.941 23.3242 242.941 23.1484C242.941 22.7773 242.863 22.4746 242.707 22.2402C242.707 22.1035 242.717 21.9668 242.736 21.8301C242.756 21.6738 242.814 21.5273 242.912 21.3906C242.756 21 242.629 20.5898 242.531 20.1602C242.453 19.7305 242.414 19.291 242.414 18.8418C242.414 18.5879 242.443 18.3242 242.502 18.0508C242.385 17.7578 242.307 17.416 242.268 17.0254L242.15 15.8242C242.111 15.4141 242.053 15.0332 241.975 14.6816C241.896 14.3301 241.75 14.0469 241.535 13.832C241.652 13.6562 241.711 13.4512 241.711 13.2168C241.711 12.8262 241.652 12.4551 241.535 12.1035C241.418 11.752 241.359 11.3809 241.359 10.9902C241.359 10.7168 241.418 10.4434 241.535 10.1699C241.965 10.1895 242.385 10.2383 242.795 10.3164C243.225 10.375 243.645 10.4043 244.055 10.4043C244.172 10.5605 244.309 10.6875 244.465 10.7852C244.621 10.8828 244.787 10.9805 244.963 11.0781C245.139 11.1562 245.305 11.2441 245.461 11.3418C245.637 11.4395 245.773 11.5762 245.871 11.752Z"/>
</svg>