<svg xmlns="http://www.w3.org/2000/svg" xmlns:xlink="http://www.w3.org/1999/xlink" width="500" zoomAndPan="magnify" viewBox="0 0 375 374.999991" height="500" preserveAspectRatio="xMidYMid meet" version="1.0"><defs><clipPath id="434df17183"><path d="M 164 183 L 306.804688 183 L 306.804688 256 L 164 256 Z M 164 183 " clip-rule="nonzero"/></clipPath></defs><path fill="#00473c" d="M 257.664062 151.910156 C 257.664062 153.367188 257.628906 154.824219 257.554688 156.277344 C 257.484375 157.734375 257.378906 159.1875 257.234375 160.640625 C 257.09375 162.089844 256.914062 163.539062 256.699219 164.980469 C 256.484375 166.421875 256.238281 167.855469 255.953125 169.289062 C 255.667969 170.71875 255.347656 172.140625 254.996094 173.554688 C 254.640625 174.96875 254.25 176.371094 253.828125 177.765625 C 253.40625 179.164062 252.949219 180.546875 252.457031 181.917969 C 251.964844 183.292969 251.441406 184.652344 250.882812 186 C 250.324219 187.34375 249.734375 188.679688 249.109375 189.996094 C 248.488281 191.3125 247.832031 192.617188 247.144531 193.902344 C 246.457031 195.1875 245.738281 196.457031 244.988281 197.707031 C 244.242188 198.957031 243.460938 200.1875 242.652344 201.398438 C 241.839844 202.613281 241 203.804688 240.132812 204.972656 C 239.265625 206.144531 238.367188 207.292969 237.441406 208.421875 C 236.519531 209.546875 235.566406 210.652344 234.585938 211.730469 C 233.609375 212.8125 232.601562 213.867188 231.574219 214.898438 C 230.542969 215.929688 229.484375 216.933594 228.40625 217.914062 C 227.324219 218.894531 226.222656 219.84375 225.09375 220.769531 C 223.96875 221.695312 222.820312 222.589844 221.648438 223.460938 C 220.476562 224.328125 219.285156 225.167969 218.074219 225.976562 C 216.859375 226.789062 215.628906 227.566406 214.378906 228.316406 C 213.128906 229.066406 211.859375 229.785156 210.574219 230.472656 C 209.289062 231.160156 207.988281 231.8125 206.667969 232.4375 C 205.351562 233.0625 204.019531 233.652344 202.671875 234.210938 C 201.324219 234.765625 199.964844 235.292969 198.59375 235.78125 C 197.21875 236.273438 195.835938 236.730469 194.441406 237.15625 C 193.046875 237.578125 191.640625 237.964844 190.226562 238.320312 C 188.8125 238.675781 187.390625 238.996094 185.960938 239.277344 C 184.53125 239.5625 183.09375 239.8125 181.652344 240.027344 C 180.210938 240.238281 178.765625 240.417969 177.3125 240.5625 C 175.863281 240.703125 174.410156 240.8125 172.953125 240.882812 C 171.496094 240.953125 170.039062 240.992188 168.582031 240.992188 C 167.125 240.992188 165.667969 240.953125 164.210938 240.882812 C 162.753906 240.8125 161.300781 240.703125 159.851562 240.5625 C 158.398438 240.417969 156.953125 240.238281 155.511719 240.027344 C 154.070312 239.8125 152.632812 239.5625 151.203125 239.277344 C 149.773438 238.996094 148.351562 238.675781 146.9375 238.320312 C 145.523438 237.964844 144.117188 237.578125 142.722656 237.15625 C 141.328125 236.730469 139.945312 236.273438 138.570312 235.78125 C 137.199219 235.292969 135.839844 234.765625 134.492188 234.210938 C 133.144531 233.652344 131.8125 233.0625 130.492188 232.4375 C 129.175781 231.8125 127.875 231.160156 126.589844 230.472656 C 125.304688 229.785156 124.035156 229.066406 122.785156 228.316406 C 121.535156 227.566406 120.300781 226.789062 119.089844 225.976562 C 117.878906 225.167969 116.6875 224.328125 115.515625 223.460938 C 114.34375 222.589844 113.195312 221.695312 112.070312 220.769531 C 110.941406 219.84375 109.835938 218.894531 108.757812 217.914062 C 107.675781 216.933594 106.621094 215.929688 105.589844 214.898438 C 104.558594 213.867188 103.554688 212.8125 102.574219 211.730469 C 101.597656 210.652344 100.644531 209.546875 99.71875 208.421875 C 98.796875 207.292969 97.898438 206.144531 97.03125 204.972656 C 96.160156 203.804688 95.324219 202.613281 94.511719 201.398438 C 93.703125 200.1875 92.921875 198.957031 92.171875 197.707031 C 91.421875 196.457031 90.707031 195.1875 90.019531 193.902344 C 89.332031 192.617188 88.675781 191.3125 88.050781 189.996094 C 87.429688 188.679688 86.839844 187.34375 86.28125 186 C 85.722656 184.652344 85.199219 183.292969 84.707031 181.917969 C 84.214844 180.546875 83.757812 179.164062 83.335938 177.765625 C 82.910156 176.371094 82.523438 174.96875 82.167969 173.554688 C 81.816406 172.140625 81.496094 170.71875 81.210938 169.289062 C 80.925781 167.855469 80.675781 166.421875 80.464844 164.980469 C 80.25 163.539062 80.070312 162.089844 79.929688 160.640625 C 79.785156 159.1875 79.679688 157.734375 79.605469 156.277344 C 79.535156 154.824219 79.5 153.367188 79.5 151.910156 C 79.5 150.449219 79.535156 148.992188 79.605469 147.539062 C 79.679688 146.082031 79.785156 144.628906 79.929688 143.175781 C 80.070312 141.726562 80.25 140.277344 80.464844 138.835938 C 80.675781 137.394531 80.925781 135.960938 81.210938 134.527344 C 81.496094 133.097656 81.816406 131.675781 82.167969 130.261719 C 82.523438 128.847656 82.910156 127.445312 83.335938 126.050781 C 83.757812 124.652344 84.214844 123.269531 84.707031 121.898438 C 85.199219 120.523438 85.722656 119.164062 86.28125 117.816406 C 86.839844 116.472656 87.429688 115.136719 88.050781 113.820312 C 88.675781 112.503906 89.332031 111.199219 90.019531 109.914062 C 90.707031 108.628906 91.421875 107.359375 92.171875 106.109375 C 92.921875 104.859375 93.703125 103.628906 94.511719 102.417969 C 95.324219 101.203125 96.160156 100.011719 97.03125 98.84375 C 97.898438 97.671875 98.796875 96.523438 99.71875 95.394531 C 100.644531 94.269531 101.597656 93.164062 102.574219 92.085938 C 103.554688 91.003906 104.558594 89.949219 105.589844 88.917969 C 106.621094 87.886719 107.675781 86.882812 108.757812 85.902344 C 109.835938 84.921875 110.941406 83.972656 112.070312 83.046875 C 113.195312 82.121094 114.34375 81.226562 115.515625 80.355469 C 116.6875 79.488281 117.878906 78.648438 119.089844 77.839844 C 120.300781 77.027344 121.535156 76.25 122.785156 75.5 C 124.035156 74.75 125.304688 74.03125 126.589844 73.34375 C 127.875 72.65625 129.175781 72.003906 130.492188 71.378906 C 131.8125 70.753906 133.144531 70.164062 134.492188 69.605469 C 135.839844 69.050781 137.199219 68.523438 138.570312 68.035156 C 139.945312 67.542969 141.328125 67.085938 142.722656 66.660156 C 144.117188 66.238281 145.523438 65.851562 146.9375 65.496094 C 148.351562 65.140625 149.773438 64.820312 151.203125 64.539062 C 152.632812 64.253906 154.070312 64.003906 155.511719 63.789062 C 156.953125 63.578125 158.398438 63.398438 159.851562 63.253906 C 161.300781 63.113281 162.753906 63.003906 164.210938 62.933594 C 165.667969 62.863281 167.125 62.824219 168.582031 62.824219 C 170.039062 62.824219 171.496094 62.863281 172.953125 62.933594 C 174.410156 63.003906 175.863281 63.113281 177.3125 63.253906 C 178.765625 63.398438 180.210938 63.578125 181.652344 63.789062 C 183.09375 64.003906 184.53125 64.253906 185.960938 64.539062 C 187.390625 64.820312 188.8125 65.140625 190.226562 65.496094 C 191.640625 65.851562 193.046875 66.238281 194.441406 66.660156 C 195.835938 67.085938 197.21875 67.542969 198.59375 68.035156 C 199.964844 68.523438 201.324219 69.050781 202.671875 69.605469 C 204.019531 70.164062 205.351562 70.753906 206.667969 71.378906 C 207.988281 72.003906 209.289062 72.65625 210.574219 73.34375 C 211.859375 74.03125 213.128906 74.75 214.378906 75.5 C 215.628906 76.25 216.859375 77.027344 218.074219 77.839844 C 219.285156 78.648438 220.476562 79.488281 221.648438 80.355469 C 222.820312 81.226562 223.96875 82.121094 225.09375 83.046875 C 226.222656 83.972656 227.324219 84.921875 228.40625 85.902344 C 229.484375 86.882812 230.542969 87.886719 231.574219 88.917969 C 232.601562 89.949219 233.609375 91.003906 234.585938 92.085938 C 235.566406 93.164062 236.519531 94.269531 237.441406 95.394531 C 238.367188 96.523438 239.265625 97.671875 240.132812 98.84375 C 241 100.011719 241.839844 101.203125 242.652344 102.417969 C 243.460938 103.628906 244.242188 104.859375 244.988281 106.109375 C 245.738281 107.359375 246.457031 108.628906 247.144531 109.914062 C 247.832031 111.199219 248.488281 112.503906 249.109375 113.820312 C 249.734375 115.136719 250.324219 116.472656 250.882812 117.816406 C 251.441406 119.164062 251.964844 120.523438 252.457031 121.898438 C 252.949219 123.269531 253.40625 124.652344 253.828125 126.050781 C 254.25 127.445312 254.640625 128.847656 254.996094 130.261719 C 255.347656 131.675781 255.667969 133.097656 255.953125 134.527344 C 256.238281 135.960938 256.484375 137.394531 256.699219 138.835938 C 256.914062 140.277344 257.09375 141.726562 257.234375 143.175781 C 257.378906 144.628906 257.484375 146.082031 257.554688 147.539062 C 257.628906 148.992188 257.664062 150.449219 257.664062 151.910156 Z M 257.664062 151.910156 " fill-opacity="1" fill-rule="nonzero"/><path fill="#d8e5d6" d="M 159.484375 193.988281 C 127.644531 200.824219 127.265625 172.382812 117.027344 145.464844 C 110.445312 128.15625 92.882812 130.601562 81.195312 134.53125 C 80.0625 140.261719 79.5 146.046875 79.5 151.886719 C 79.5 201.085938 119.382812 240.972656 168.582031 240.972656 C 171.75 240.976562 174.910156 240.808594 178.0625 240.476562 C 181.210938 240.140625 184.335938 239.640625 187.433594 238.96875 C 190.53125 238.300781 193.582031 237.46875 196.589844 236.472656 C 199.597656 235.480469 202.546875 234.324219 205.429688 233.015625 C 208.316406 231.703125 211.121094 230.246094 213.851562 228.632812 C 216.578125 227.023438 219.214844 225.269531 221.753906 223.378906 C 224.296875 221.488281 226.730469 219.464844 229.054688 217.3125 C 231.378906 215.15625 233.582031 212.886719 235.664062 210.5 C 220.054688 189.328125 187.5625 187.972656 159.484375 193.988281 Z M 159.484375 193.988281 " fill-opacity="1" fill-rule="nonzero"/><path fill="#232020" d="M 116.085938 144.058594 C 115.757812 144.054688 115.523438 143.902344 115.390625 143.601562 C 112.308594 137.226562 107.148438 133.546875 100.042969 132.667969 C 94.746094 132.019531 88.488281 132.898438 81.445312 135.273438 C 81.238281 135.363281 81.03125 135.363281 80.824219 135.269531 C 80.617188 135.179688 80.480469 135.027344 80.40625 134.8125 C 80.335938 134.597656 80.351562 134.394531 80.460938 134.195312 C 80.566406 133.996094 80.730469 133.867188 80.949219 133.8125 C 88.238281 131.355469 94.703125 130.460938 100.226562 131.140625 C 107.890625 132.078125 113.4375 136.046875 116.777344 142.925781 C 116.871094 143.117188 116.882812 143.3125 116.8125 143.511719 C 116.746094 143.714844 116.613281 143.859375 116.421875 143.953125 C 116.320312 144.015625 116.207031 144.050781 116.085938 144.058594 Z M 116.085938 144.058594 " fill-opacity="1" fill-rule="nonzero"/><path fill="#232020" d="M 235.664062 211.292969 C 235.40625 211.289062 235.199219 211.1875 235.042969 210.976562 C 227.957031 201.351562 216.882812 195.242188 202.125 192.808594 C 189.742188 190.773438 175.054688 191.441406 159.648438 194.742188 C 156.691406 195.40625 153.695312 195.753906 150.664062 195.785156 C 131.984375 195.785156 127.0625 179.703125 121.507812 161.449219 C 120.699219 158.804688 119.871094 156.078125 118.984375 153.347656 C 118.902344 153.140625 118.910156 152.933594 119.007812 152.734375 C 119.105469 152.53125 119.257812 152.398438 119.472656 152.332031 C 119.6875 152.265625 119.890625 152.289062 120.082031 152.398438 C 120.277344 152.511719 120.398438 152.675781 120.449219 152.890625 C 121.363281 155.625 122.175781 158.359375 122.984375 161.019531 C 129.363281 182.011719 134.441406 198.589844 159.339844 193.253906 C 174.933594 189.917969 189.816406 189.242188 202.390625 191.308594 C 217.554688 193.808594 228.964844 200.125 236.300781 210.085938 C 236.492188 210.339844 236.515625 210.609375 236.371094 210.894531 C 236.226562 211.175781 235.996094 211.316406 235.679688 211.316406 Z M 235.664062 211.292969 " fill-opacity="1" fill-rule="nonzero"/><path fill="#d8e5d6" d="M 168.582031 62.824219 C 163.960938 62.820312 159.363281 63.171875 154.796875 63.882812 C 150.230469 64.59375 145.746094 65.65625 141.34375 67.070312 C 136.941406 68.484375 132.675781 70.230469 128.550781 72.308594 C 124.421875 74.390625 120.480469 76.777344 116.722656 79.472656 C 116.996094 88.8125 119.730469 98.332031 126.25 105.46875 C 143.703125 124.511719 172.203125 115.976562 193.851562 102.027344 C 215.5 88.078125 223.726562 109.003906 238.824219 126.050781 C 243.945312 131.828125 249.78125 132.691406 255.265625 131.308594 C 245.96875 92.042969 210.691406 62.824219 168.582031 62.824219 Z M 168.582031 62.824219 " fill-opacity="1" fill-rule="nonzero"/><path fill="#232020" d="M 250.816406 132.667969 C 246.054688 132.667969 241.847656 130.628906 238.246094 126.570312 C 235.269531 123.203125 232.570312 119.707031 229.960938 116.328125 C 219.40625 102.660156 211.066406 91.859375 194.269531 102.683594 C 194.09375 102.800781 193.898438 102.835938 193.691406 102.792969 C 193.480469 102.746094 193.320312 102.636719 193.203125 102.457031 C 193.089844 102.277344 193.050781 102.085938 193.097656 101.875 C 193.140625 101.667969 193.253906 101.503906 193.433594 101.390625 C 211.421875 89.796875 220.582031 101.652344 231.179688 115.386719 C 233.773438 118.742188 236.457031 122.21875 239.40625 125.542969 C 243.714844 130.414062 248.972656 132.105469 255.082031 130.554688 C 255.28125 130.519531 255.464844 130.558594 255.636719 130.671875 C 255.804688 130.78125 255.914062 130.933594 255.964844 131.132812 C 256.011719 131.328125 255.988281 131.515625 255.890625 131.691406 C 255.792969 131.871094 255.648438 131.992188 255.453125 132.054688 C 253.933594 132.449219 252.386719 132.65625 250.816406 132.667969 Z M 250.816406 132.667969 " fill-opacity="1" fill-rule="nonzero"/><path fill="#232020" d="M 152.355469 117.285156 C 141.523438 117.285156 132.550781 113.484375 125.679688 105.992188 C 118.027344 97.644531 116.167969 86.976562 115.953125 79.496094 C 115.949219 79.28125 116.019531 79.097656 116.164062 78.945312 C 116.3125 78.789062 116.492188 78.710938 116.703125 78.703125 C 116.917969 78.699219 117.101562 78.769531 117.253906 78.914062 C 117.410156 79.0625 117.488281 79.242188 117.492188 79.453125 C 117.703125 86.671875 119.488281 96.953125 126.820312 104.964844 C 143.246094 122.894531 168.363281 114.53125 181.871094 107.9375 C 182.050781 107.878906 182.230469 107.886719 182.40625 107.960938 C 182.585938 108.035156 182.714844 108.15625 182.800781 108.328125 C 182.882812 108.5 182.902344 108.679688 182.855469 108.863281 C 182.804688 109.046875 182.703125 109.195312 182.542969 109.304688 C 171.839844 114.523438 161.402344 117.285156 152.359375 117.285156 Z M 152.355469 117.285156 " fill-opacity="1" fill-rule="nonzero"/><path fill="#232020" d="M 168.582031 241.765625 C 166.589844 241.765625 164.597656 241.699219 162.609375 241.566406 C 160.621094 241.433594 158.636719 241.234375 156.660156 240.96875 C 154.6875 240.703125 152.722656 240.371094 150.769531 239.976562 C 148.8125 239.582031 146.875 239.121094 144.953125 238.597656 C 143.03125 238.074219 141.125 237.484375 139.242188 236.832031 C 137.359375 236.183594 135.5 235.46875 133.664062 234.695312 C 131.824219 233.917969 130.015625 233.085938 128.234375 232.1875 C 126.457031 231.292969 124.707031 230.339844 122.988281 229.328125 C 121.269531 228.316406 119.589844 227.25 117.941406 226.125 C 116.296875 225.003906 114.6875 223.824219 113.121094 222.59375 C 111.554688 221.363281 110.027344 220.082031 108.542969 218.75 C 107.0625 217.417969 105.625 216.039062 104.234375 214.613281 C 102.84375 213.183594 101.5 211.710938 100.207031 210.195312 C 98.914062 208.679688 97.671875 207.121094 96.484375 205.519531 C 95.292969 203.921875 94.160156 202.285156 93.078125 200.609375 C 92 198.933594 90.976562 197.222656 90.007812 195.480469 C 89.042969 193.738281 88.132812 191.964844 87.285156 190.160156 C 86.4375 188.359375 85.648438 186.527344 84.921875 184.671875 C 84.195312 182.816406 83.53125 180.9375 82.925781 179.039062 C 82.324219 177.136719 81.785156 175.21875 81.3125 173.285156 C 80.839844 171.347656 80.429688 169.398438 80.082031 167.433594 C 79.738281 165.472656 79.460938 163.5 79.246094 161.515625 C 79.03125 159.535156 78.886719 157.550781 78.804688 155.558594 C 78.722656 153.566406 78.707031 151.574219 78.757812 149.582031 C 78.808594 147.589844 78.925781 145.601562 79.109375 143.613281 C 79.292969 141.628906 79.542969 139.652344 79.859375 137.683594 C 80.171875 135.71875 80.554688 133.761719 81 131.820312 C 81.445312 129.875 81.953125 127.949219 82.527344 126.039062 C 83.101562 124.132812 83.734375 122.242188 84.433594 120.378906 C 85.132812 118.511719 85.894531 116.667969 86.714844 114.851562 C 87.535156 113.035156 88.417969 111.25 89.359375 109.492188 C 90.296875 107.734375 91.296875 106.011719 92.351562 104.320312 C 92.464844 104.140625 92.625 104.023438 92.832031 103.976562 C 93.039062 103.929688 93.234375 103.960938 93.414062 104.074219 C 93.59375 104.1875 93.710938 104.347656 93.757812 104.558594 C 93.804688 104.765625 93.773438 104.957031 93.660156 105.140625 C 92.65625 106.742188 91.707031 108.371094 90.808594 110.035156 C 89.914062 111.695312 89.070312 113.382812 88.28125 115.101562 C 87.492188 116.816406 86.757812 118.554688 86.082031 120.320312 C 85.402344 122.082031 84.785156 123.863281 84.21875 125.667969 C 83.65625 127.46875 83.152344 129.289062 82.703125 131.125 C 82.257812 132.957031 81.871094 134.804688 81.542969 136.664062 C 81.214844 138.523438 80.945312 140.394531 80.734375 142.269531 C 80.527344 144.148438 80.378906 146.03125 80.289062 147.914062 C 80.203125 149.800781 80.175781 151.691406 80.207031 153.578125 C 80.238281 155.464844 80.332031 157.351562 80.484375 159.234375 C 80.640625 161.117188 80.851562 162.992188 81.125 164.859375 C 81.398438 166.730469 81.734375 168.585938 82.125 170.433594 C 82.519531 172.28125 82.96875 174.113281 83.480469 175.933594 C 83.988281 177.75 84.554688 179.550781 85.183594 181.335938 C 85.808594 183.117188 86.488281 184.875 87.226562 186.613281 C 87.964844 188.351562 88.757812 190.066406 89.605469 191.753906 C 90.453125 193.441406 91.355469 195.101562 92.308594 196.730469 C 93.261719 198.359375 94.265625 199.957031 95.324219 201.523438 C 96.378906 203.089844 97.484375 204.617188 98.640625 206.113281 C 99.792969 207.609375 100.996094 209.066406 102.242188 210.484375 C 103.492188 211.898438 104.78125 213.277344 106.117188 214.613281 C 107.453125 215.945312 108.832031 217.238281 110.25 218.484375 C 111.667969 219.730469 113.125 220.929688 114.621094 222.085938 C 116.117188 223.238281 117.648438 224.34375 119.210938 225.398438 C 120.777344 226.453125 122.378906 227.457031 124.007812 228.410156 C 125.636719 229.363281 127.296875 230.265625 128.984375 231.109375 C 130.675781 231.957031 132.386719 232.75 134.125 233.488281 C 135.863281 234.222656 137.625 234.902344 139.40625 235.527344 C 141.191406 236.152344 142.992188 236.71875 144.808594 237.226562 C 146.628906 237.738281 148.460938 238.1875 150.308594 238.578125 C 152.15625 238.96875 154.015625 239.300781 155.882812 239.574219 C 157.753906 239.847656 159.628906 240.058594 161.511719 240.210938 C 163.394531 240.363281 165.277344 240.457031 167.167969 240.488281 C 169.054688 240.519531 170.941406 240.488281 172.828125 240.398438 C 174.714844 240.3125 176.597656 240.160156 178.472656 239.949219 C 180.351562 239.742188 182.21875 239.472656 184.078125 239.140625 C 185.9375 238.8125 187.785156 238.421875 189.621094 237.976562 C 191.457031 237.527344 193.273438 237.019531 195.074219 236.457031 C 196.878906 235.890625 198.660156 235.269531 200.421875 234.59375 C 202.183594 233.914062 203.925781 233.179688 205.640625 232.390625 C 207.355469 231.601562 209.042969 230.753906 210.703125 229.859375 C 212.367188 228.960938 213.996094 228.007812 215.597656 227.007812 C 217.199219 226.003906 218.765625 224.949219 220.296875 223.847656 C 221.832031 222.746094 223.328125 221.59375 224.785156 220.394531 C 226.246094 219.195312 227.664062 217.953125 229.046875 216.664062 C 230.425781 215.371094 231.761719 214.039062 233.054688 212.664062 C 234.351562 211.289062 235.597656 209.875 236.800781 208.417969 C 238.007812 206.964844 239.160156 205.472656 240.269531 203.941406 C 241.378906 202.414062 242.4375 200.847656 243.445312 199.25 C 244.453125 197.65625 245.40625 196.027344 246.3125 194.367188 C 247.214844 192.710938 248.0625 191.023438 248.859375 189.3125 C 249.65625 187.597656 250.394531 185.863281 251.078125 184.101562 C 251.765625 182.339844 252.390625 180.5625 252.960938 178.761719 C 253.53125 176.960938 254.042969 175.144531 254.5 173.308594 C 254.953125 171.476562 255.347656 169.632812 255.683594 167.773438 C 256.019531 165.914062 256.292969 164.046875 256.511719 162.171875 C 256.726562 160.292969 256.882812 158.414062 256.976562 156.527344 C 257.074219 154.640625 257.109375 152.753906 257.082031 150.867188 C 257.058594 148.976562 256.972656 147.089844 256.828125 145.207031 C 256.679688 143.324219 256.472656 141.449219 256.207031 139.578125 C 255.941406 137.710938 255.617188 135.851562 255.230469 134 C 254.84375 132.152344 254.402344 130.316406 253.898438 128.496094 C 253.394531 126.675781 252.835938 124.875 252.214844 123.089844 C 251.597656 121.304688 250.921875 119.542969 250.191406 117.800781 C 249.460938 116.058594 248.675781 114.34375 247.832031 112.652344 C 246.992188 110.960938 246.097656 109.300781 245.148438 107.667969 C 244.203125 106.03125 243.203125 104.429688 242.152344 102.863281 C 241.101562 101.292969 240.003906 99.757812 238.855469 98.257812 C 237.707031 96.757812 236.511719 95.296875 235.269531 93.875 C 234.027344 92.453125 232.738281 91.070312 231.410156 89.730469 C 230.078125 88.390625 228.707031 87.09375 227.292969 85.84375 C 225.878906 84.589844 224.425781 83.386719 222.9375 82.226562 C 221.445312 81.066406 219.917969 79.957031 218.355469 78.894531 C 216.792969 77.832031 215.199219 76.824219 213.574219 75.863281 C 211.945312 74.902344 210.289062 73.996094 208.605469 73.144531 C 206.921875 72.289062 205.210938 71.492188 203.472656 70.75 C 201.738281 70.003906 199.980469 69.316406 198.199219 68.6875 C 196.421875 68.054688 194.621094 67.480469 192.804688 66.964844 C 190.988281 66.449219 189.15625 65.992188 187.3125 65.59375 C 185.464844 65.195312 183.609375 64.855469 181.742188 64.578125 C 179.871094 64.296875 177.996094 64.078125 176.117188 63.917969 C 174.234375 63.757812 172.347656 63.660156 170.460938 63.621094 C 168.574219 63.582031 166.683594 63.601562 164.796875 63.683594 C 162.910156 63.765625 161.03125 63.910156 159.152344 64.113281 C 157.273438 64.3125 155.40625 64.578125 153.542969 64.898438 C 151.683594 65.222656 149.835938 65.601562 148 66.042969 C 146.160156 66.484375 144.339844 66.984375 142.535156 67.542969 C 140.730469 68.097656 138.949219 68.714844 137.183594 69.386719 C 135.417969 70.058594 133.675781 70.785156 131.957031 71.566406 C 130.238281 72.351562 128.546875 73.1875 126.882812 74.082031 C 125.21875 74.972656 123.582031 75.914062 121.976562 76.914062 C 120.375 77.910156 118.804688 78.957031 117.265625 80.050781 C 115.730469 81.148438 114.226562 82.292969 112.765625 83.488281 C 111.300781 84.679688 109.875 85.917969 108.492188 87.203125 C 107.105469 88.488281 105.765625 89.816406 104.464844 91.1875 C 103.164062 92.554688 101.910156 93.964844 100.703125 95.417969 C 100.566406 95.582031 100.390625 95.671875 100.179688 95.691406 C 99.964844 95.710938 99.777344 95.652344 99.613281 95.515625 C 99.453125 95.378906 99.359375 95.203125 99.339844 94.992188 C 99.320312 94.78125 99.378906 94.59375 99.515625 94.429688 C 100.71875 92.980469 101.96875 91.574219 103.257812 90.203125 C 104.550781 88.835938 105.882812 87.507812 107.257812 86.222656 C 108.632812 84.9375 110.046875 83.695312 111.5 82.496094 C 112.953125 81.300781 114.445312 80.152344 115.96875 79.046875 C 117.496094 77.945312 119.054688 76.890625 120.644531 75.886719 C 122.234375 74.878906 123.859375 73.925781 125.507812 73.023438 C 127.160156 72.121094 128.839844 71.269531 130.542969 70.472656 C 132.25 69.671875 133.976562 68.929688 135.730469 68.238281 C 137.480469 67.550781 139.25 66.917969 141.042969 66.339844 C 142.835938 65.761719 144.640625 65.238281 146.464844 64.777344 C 148.289062 64.3125 150.128906 63.90625 151.976562 63.554688 C 153.828125 63.207031 155.6875 62.914062 157.554688 62.683594 C 159.421875 62.453125 161.296875 62.277344 163.175781 62.164062 C 165.054688 62.046875 166.933594 61.992188 168.816406 61.996094 C 170.699219 62 172.578125 62.0625 174.457031 62.183594 C 176.335938 62.308594 178.210938 62.488281 180.078125 62.726562 C 181.945312 62.964844 183.800781 63.265625 185.648438 63.621094 C 187.496094 63.976562 189.332031 64.390625 191.15625 64.863281 C 192.976562 65.332031 194.785156 65.863281 196.574219 66.445312 C 198.363281 67.03125 200.132812 67.671875 201.878906 68.367188 C 203.628906 69.0625 205.355469 69.8125 207.058594 70.617188 C 208.757812 71.421875 210.433594 72.28125 212.082031 73.191406 C 213.730469 74.101562 215.347656 75.058594 216.933594 76.070312 C 218.523438 77.082031 220.078125 78.144531 221.597656 79.253906 C 223.117188 80.359375 224.605469 81.515625 226.050781 82.71875 C 227.5 83.921875 228.910156 85.167969 230.28125 86.457031 C 231.648438 87.75 232.976562 89.082031 234.265625 90.457031 C 235.550781 91.832031 236.792969 93.242188 237.992188 94.695312 C 239.1875 96.148438 240.339844 97.636719 241.441406 99.160156 C 242.546875 100.6875 243.601562 102.242188 244.609375 103.835938 C 245.613281 105.425781 246.570312 107.046875 247.472656 108.699219 C 248.378906 110.347656 249.230469 112.027344 250.03125 113.730469 C 250.828125 115.433594 251.574219 117.164062 252.261719 118.914062 C 252.953125 120.664062 253.589844 122.4375 254.167969 124.226562 C 254.746094 126.019531 255.269531 127.828125 255.734375 129.648438 C 256.199219 131.472656 256.609375 133.3125 256.957031 135.160156 C 257.308594 137.011719 257.601562 138.867188 257.832031 140.738281 C 258.066406 142.605469 258.242188 144.476562 258.355469 146.355469 C 258.472656 148.234375 258.53125 150.117188 258.527344 152 C 258.523438 153.878906 258.464844 155.761719 258.34375 157.640625 C 258.222656 159.519531 258.042969 161.390625 257.804688 163.257812 C 257.566406 165.125 257.269531 166.984375 256.914062 168.832031 C 256.558594 170.679688 256.148438 172.515625 255.675781 174.339844 C 255.207031 176.160156 254.679688 177.96875 254.09375 179.757812 C 253.511719 181.546875 252.871094 183.316406 252.175781 185.066406 C 251.480469 186.816406 250.734375 188.542969 249.929688 190.242188 C 249.125 191.945312 248.269531 193.621094 247.359375 195.269531 C 246.453125 196.917969 245.492188 198.535156 244.484375 200.125 C 243.472656 201.714844 242.414062 203.269531 241.304688 204.789062 C 240.195312 206.3125 239.042969 207.796875 237.839844 209.246094 C 236.640625 210.695312 235.394531 212.105469 234.105469 213.476562 C 232.8125 214.847656 231.480469 216.175781 230.109375 217.464844 C 228.734375 218.75 227.324219 219.996094 225.871094 221.191406 C 224.417969 222.390625 222.933594 223.542969 221.40625 224.648438 C 219.882812 225.753906 218.328125 226.808594 216.738281 227.816406 C 215.144531 228.824219 213.527344 229.78125 211.875 230.683594 C 210.226562 231.589844 208.546875 232.441406 206.84375 233.242188 C 205.140625 234.042969 203.414062 234.789062 201.660156 235.480469 C 199.910156 236.171875 198.140625 236.808594 196.351562 237.386719 C 194.558594 237.96875 192.75 238.492188 190.929688 238.957031 C 189.105469 239.425781 187.269531 239.835938 185.417969 240.1875 C 183.570312 240.535156 181.710938 240.828125 179.84375 241.066406 C 177.976562 241.300781 176.101562 241.476562 174.222656 241.589844 C 172.34375 241.707031 170.464844 241.765625 168.582031 241.765625 Z M 168.582031 241.765625 " fill-opacity="1" fill-rule="nonzero"/><path fill="#00473c" d="M 165.460938 230.421875 C 165.460938 230.421875 181.363281 179.398438 229.828125 186.230469 C 278.292969 193.066406 294.40625 188.691406 305.746094 183.816406 C 305.746094 183.8125 258.105469 304.117188 165.460938 230.421875 Z M 165.460938 230.421875 " fill-opacity="1" fill-rule="nonzero"/><path fill="#ffffff" d="M 229.828125 186.226562 C 199.339844 181.921875 181.742188 200.519531 172.882812 214.925781 C 176.894531 208.75 197.21875 183.238281 252.757812 193.605469 C 274.851562 197.734375 288.910156 193.679688 297.859375 186.683594 C 286.335938 190.019531 268.246094 191.65625 229.828125 186.226562 Z M 229.828125 186.226562 " fill-opacity="1" fill-rule="nonzero"/><g clip-path="url(#434df17183)"><path fill="#232020" d="M 223.1875 255.085938 C 204.613281 255.085938 185.105469 247.03125 164.984375 231.023438 C 164.707031 230.804688 164.621094 230.527344 164.722656 230.1875 C 167.953125 221.035156 172.671875 212.722656 178.882812 205.261719 C 184.78125 198.257812 191.550781 192.960938 199.003906 189.542969 C 208.324219 185.25 218.734375 183.878906 229.9375 185.464844 C 278.554688 192.332031 294.402344 187.847656 305.441406 183.101562 C 305.753906 182.964844 306.035156 183.015625 306.28125 183.257812 C 306.527344 183.496094 306.589844 183.773438 306.460938 184.09375 C 301.9375 194.683594 296.335938 204.667969 289.660156 214.046875 C 283.171875 223.160156 276.136719 230.945312 268.753906 237.144531 C 259.496094 244.917969 249.660156 250.234375 239.507812 252.945312 C 234.164062 254.375 228.722656 255.085938 223.1875 255.085938 Z M 166.363281 230.160156 C 191.921875 250.347656 216.394531 257.496094 239.089844 251.453125 C 249.011719 248.808594 258.644531 243.601562 267.722656 235.964844 C 275.011719 229.851562 281.949219 222.179688 288.359375 213.1875 C 294.585938 204.402344 299.890625 195.089844 304.277344 185.257812 C 293.085938 189.785156 276.226562 193.570312 229.707031 186.996094 C 218.808594 185.457031 208.699219 186.78125 199.636719 190.9375 C 192.398438 194.261719 185.808594 199.40625 180.046875 206.214844 C 174.097656 213.402344 169.535156 221.386719 166.363281 230.160156 Z M 166.363281 230.160156 " fill-opacity="1" fill-rule="nonzero"/></g><path fill="#232020" d="M 166.617188 230.46875 C 166.410156 230.472656 166.230469 230.40625 166.078125 230.265625 C 165.925781 230.125 165.84375 229.953125 165.832031 229.746094 C 165.816406 229.542969 165.878906 229.359375 166.011719 229.203125 C 166.144531 229.042969 166.3125 228.953125 166.519531 228.929688 C 167.257812 228.5625 167.96875 228.136719 168.644531 227.660156 C 174.597656 223.703125 180.949219 220.5625 187.707031 218.238281 C 199.75 214.019531 213.714844 211.859375 229.203125 211.78125 C 248.695312 211.691406 262.03125 209.820312 272.453125 205.699219 C 282.183594 201.847656 288.894531 196.273438 297.390625 189.207031 C 299.507812 187.449219 301.699219 185.625 304.082031 183.707031 C 304.25 183.589844 304.433594 183.546875 304.632812 183.574219 C 304.835938 183.601562 305 183.695312 305.128906 183.855469 C 305.257812 184.011719 305.3125 184.195312 305.296875 184.398438 C 305.285156 184.601562 305.203125 184.769531 305.050781 184.910156 C 302.675781 186.820312 300.496094 188.636719 298.375 190.375 C 281.3125 204.558594 271.015625 213.117188 229.207031 213.304688 C 213.894531 213.375 200.097656 215.515625 188.207031 219.683594 C 181.566406 221.96875 175.324219 225.054688 169.472656 228.941406 C 167.949219 229.929688 167.25 230.378906 166.699219 230.449219 Z M 166.617188 230.46875 " fill-opacity="1" fill-rule="nonzero"/><path fill="#232020" d="M 272.550781 213.875 C 271.183594 213.875 269.75 213.84375 268.265625 213.777344 C 262.976562 213.527344 257.726562 212.933594 252.515625 211.992188 C 252.351562 211.960938 252.210938 211.882812 252.097656 211.757812 C 251.980469 211.636719 251.914062 211.488281 251.898438 211.320312 C 251.878906 211.152344 251.910156 210.996094 251.996094 210.851562 C 252.082031 210.703125 252.203125 210.597656 252.355469 210.53125 C 265.289062 204.917969 269.332031 189.710938 269.367188 189.574219 C 269.421875 189.367188 269.539062 189.210938 269.722656 189.101562 C 269.90625 188.992188 270.101562 188.964844 270.304688 189.019531 C 270.511719 189.070312 270.667969 189.191406 270.777344 189.375 C 270.886719 189.554688 270.914062 189.75 270.863281 189.957031 C 270.703125 190.578125 267.03125 204.386719 255.148438 210.914062 C 262.136719 212.011719 282.9375 214.585938 291.890625 208.152344 C 292.0625 208.027344 292.257812 207.980469 292.46875 208.015625 C 292.679688 208.046875 292.847656 208.152344 292.972656 208.324219 C 293.097656 208.496094 293.144531 208.6875 293.113281 208.898438 C 293.078125 209.113281 292.976562 209.28125 292.800781 209.40625 C 288.621094 212.367188 281.824219 213.875 272.550781 213.875 Z M 272.550781 213.875 " fill-opacity="1" fill-rule="nonzero"/><path fill="#232020" d="M 268.195312 237.378906 C 267.933594 237.378906 267.726562 237.273438 267.574219 237.058594 C 264.269531 232.503906 256.132812 226.980469 244.050781 221.035156 C 234.863281 216.511719 226.566406 213.332031 226.484375 213.292969 C 226.332031 213.234375 226.210938 213.140625 226.121094 213.007812 C 226.027344 212.878906 225.980469 212.730469 225.980469 212.570312 C 225.980469 212.410156 226.027344 212.261719 226.121094 212.128906 C 226.210938 211.996094 226.332031 211.902344 226.484375 211.847656 C 235.035156 208.75 240.234375 202.511719 243.085938 197.816406 C 244.9375 194.824219 246.335938 191.636719 247.289062 188.25 C 247.351562 188.054688 247.46875 187.90625 247.648438 187.804688 C 247.824219 187.703125 248.011719 187.675781 248.210938 187.722656 C 248.410156 187.769531 248.566406 187.878906 248.679688 188.050781 C 248.789062 188.222656 248.828125 188.40625 248.792969 188.609375 C 247.8125 192.140625 246.355469 195.460938 244.425781 198.578125 C 241.644531 203.132812 236.742188 209.113281 228.84375 212.5625 C 235.972656 215.414062 261.535156 226.148438 268.8125 236.136719 C 268.996094 236.394531 269.015625 236.660156 268.871094 236.941406 C 268.730469 237.222656 268.5 237.363281 268.1875 237.363281 Z M 268.195312 237.378906 " fill-opacity="1" fill-rule="nonzero"/><path fill="#232020" d="M 227.503906 254.933594 C 227.167969 254.941406 226.929688 254.789062 226.792969 254.480469 C 222.871094 244.984375 216.339844 231.828125 207.496094 223.046875 C 202.226562 217.8125 198.585938 216.613281 198.550781 216.605469 C 198.246094 216.507812 198.066406 216.300781 198.015625 215.984375 C 197.964844 215.667969 198.070312 215.417969 198.335938 215.234375 C 203.300781 211.769531 208.691406 205.5 213.925781 197.109375 C 216.316406 193.28125 218.484375 189.335938 220.433594 185.265625 C 220.53125 185.082031 220.675781 184.957031 220.871094 184.890625 C 221.066406 184.824219 221.257812 184.835938 221.445312 184.921875 C 221.632812 185.011719 221.765625 185.148438 221.839844 185.339844 C 221.917969 185.535156 221.914062 185.726562 221.835938 185.917969 C 221.4375 186.777344 212.179688 206.59375 200.320312 215.667969 C 201.902344 216.453125 204.800781 218.203125 208.457031 221.804688 C 217.542969 230.761719 224.214844 244.183594 228.214844 253.863281 C 228.296875 254.0625 228.296875 254.257812 228.21875 254.457031 C 228.136719 254.652344 227.996094 254.792969 227.800781 254.875 C 227.707031 254.914062 227.609375 254.933594 227.503906 254.933594 Z M 227.503906 254.933594 " fill-opacity="1" fill-rule="nonzero"/><path fill="#d8e5d6" d="M 151.449219 238.722656 C 151.449219 238.722656 181.710938 212.476562 209.886719 235.957031 C 238.066406 259.4375 250.058594 263 259.207031 264.367188 C 259.207031 264.367188 181.398438 322.222656 151.449219 238.722656 Z M 151.449219 238.722656 " fill-opacity="1" fill-rule="nonzero"/><path fill="#ffffff" d="M 154.214844 236.601562 C 154.316406 236.5625 188.324219 223.203125 207.628906 240.996094 C 222.722656 254.902344 239.664062 265.140625 258.652344 264.777344 L 259.226562 264.367188 C 250.078125 263 238.082031 259.441406 209.90625 235.957031 C 186.796875 216.714844 162.292969 230.871094 154.214844 236.601562 Z M 154.214844 236.601562 " fill-opacity="1" fill-rule="nonzero"/><path fill="#232020" d="M 205.09375 284.652344 C 199.851562 284.683594 194.710938 283.957031 189.683594 282.464844 C 172.292969 277.214844 159.160156 262.578125 150.71875 238.980469 C 150.601562 238.648438 150.675781 238.367188 150.941406 238.136719 C 156.609375 233.539062 162.910156 230.09375 169.84375 227.800781 C 176.390625 225.660156 182.816406 224.957031 188.945312 225.71875 C 196.617188 226.667969 203.824219 229.914062 210.359375 235.363281 C 238.578125 258.890625 250.414062 262.273438 259.292969 263.609375 C 259.632812 263.660156 259.84375 263.851562 259.929688 264.183594 C 260.007812 264.515625 259.910156 264.785156 259.640625 264.988281 C 252.570312 269.957031 245.050781 274.117188 237.082031 277.464844 C 229.863281 280.582031 222.367188 282.742188 214.597656 283.949219 C 211.449219 284.410156 208.28125 284.644531 205.09375 284.652344 Z M 152.355469 238.96875 C 160.648438 261.78125 173.355469 275.917969 190.125 280.988281 C 197.460938 283.207031 205.613281 283.691406 214.378906 282.421875 C 222.015625 281.234375 229.378906 279.105469 236.472656 276.042969 C 243.746094 272.960938 250.660156 269.21875 257.21875 264.808594 C 248.3125 263.203125 236.011719 258.714844 209.382812 236.535156 C 203.078125 231.28125 196.171875 228.15625 188.789062 227.242188 C 182.894531 226.503906 176.699219 227.175781 170.375 229.238281 C 163.808594 231.441406 157.800781 234.6875 152.355469 238.96875 Z M 152.355469 238.96875 " fill-opacity="1" fill-rule="nonzero"/><path fill="#232020" d="M 237.355469 267.226562 C 227.332031 267.226562 216.914062 264.304688 198.703125 253.140625 C 175.855469 239.132812 159.851562 239.472656 154.589844 239.570312 C 153.195312 239.597656 152.558594 239.609375 152.144531 239.414062 C 151.949219 239.328125 151.816406 239.183594 151.738281 238.988281 C 151.664062 238.789062 151.667969 238.59375 151.753906 238.398438 C 151.839844 238.203125 151.980469 238.070312 152.179688 237.992188 C 152.378906 237.917969 152.574219 237.921875 152.769531 238.007812 C 153.367188 238.046875 153.960938 238.046875 154.558594 238.007812 C 159.929688 237.898438 176.28125 237.550781 199.511719 251.804688 C 225.804688 267.929688 235.5625 266.5625 251.726562 264.296875 C 253.773438 264.011719 255.886719 263.714844 258.164062 263.433594 C 258.375 263.40625 258.566406 263.460938 258.734375 263.589844 C 258.902344 263.722656 259 263.894531 259.027344 264.105469 C 259.054688 264.316406 259 264.507812 258.871094 264.675781 C 258.738281 264.839844 258.566406 264.9375 258.355469 264.960938 C 256.078125 265.246094 253.984375 265.542969 251.941406 265.824219 C 246.667969 266.605469 242.054688 267.226562 237.355469 267.226562 Z M 152.78125 238.011719 Z M 152.78125 238.011719 " fill-opacity="1" fill-rule="nonzero"/><path fill="#232020" d="M 240.105469 275.757812 C 229.628906 275.757812 214.691406 262.0625 214.042969 261.464844 C 213.921875 261.347656 213.84375 261.207031 213.8125 261.042969 C 213.78125 260.875 213.804688 260.71875 213.875 260.566406 C 213.949219 260.414062 214.058594 260.296875 214.207031 260.21875 C 214.355469 260.140625 214.515625 260.109375 214.679688 260.132812 C 225.023438 261.644531 233.546875 253.617188 233.632812 253.535156 C 233.785156 253.390625 233.96875 253.316406 234.183594 253.320312 C 234.394531 253.324219 234.574219 253.40625 234.722656 253.558594 C 234.871094 253.710938 234.941406 253.894531 234.9375 254.109375 C 234.933594 254.320312 234.851562 254.5 234.699219 254.648438 C 234.355469 254.976562 226.792969 262.128906 216.84375 261.863281 C 221.222656 265.582031 232.875 274.738281 240.78125 274.191406 C 240.992188 274.179688 241.179688 274.242188 241.339844 274.382812 C 241.5 274.523438 241.589844 274.699219 241.605469 274.914062 C 241.621094 275.125 241.554688 275.3125 241.414062 275.472656 C 241.273438 275.632812 241.097656 275.71875 240.886719 275.730469 C 240.628906 275.75 240.371094 275.757812 240.105469 275.757812 Z M 240.105469 275.757812 " fill-opacity="1" fill-rule="nonzero"/><path fill="#232020" d="M 214.457031 283.960938 C 214.257812 283.960938 214.082031 283.890625 213.933594 283.753906 C 213.789062 283.617188 213.707031 283.449219 213.691406 283.25 C 212.925781 273.109375 197.082031 252.214844 196.921875 252.007812 C 196.707031 251.722656 196.695312 251.429688 196.886719 251.128906 C 197.074219 250.828125 197.34375 250.710938 197.691406 250.78125 C 210.402344 253.421875 219.988281 244.101562 220.082031 244.011719 C 220.234375 243.863281 220.417969 243.789062 220.628906 243.789062 C 220.839844 243.789062 221.019531 243.867188 221.171875 244.015625 C 221.320312 244.167969 221.394531 244.347656 221.394531 244.5625 C 221.394531 244.773438 221.316406 244.953125 221.167969 245.105469 C 220.773438 245.496094 211.816406 254.214844 199.300781 252.613281 C 200.800781 254.667969 203.570312 258.5625 206.363281 263.023438 C 211.910156 271.886719 214.894531 278.65625 215.230469 283.128906 C 215.246094 283.34375 215.1875 283.53125 215.046875 283.691406 C 214.910156 283.855469 214.734375 283.941406 214.519531 283.960938 Z M 214.457031 283.960938 " fill-opacity="1" fill-rule="nonzero"/><path fill="#232020" d="M 181.605469 279.09375 C 181.566406 279.097656 181.523438 279.097656 181.484375 279.09375 C 181.273438 279.0625 181.105469 278.957031 180.980469 278.785156 C 180.855469 278.613281 180.8125 278.421875 180.84375 278.210938 C 182.085938 270.648438 183.125 259.734375 180.964844 250.695312 C 179.683594 245.304688 177.851562 243.117188 177.835938 243.09375 C 177.628906 242.851562 177.585938 242.582031 177.710938 242.289062 C 177.835938 241.996094 178.058594 241.839844 178.375 241.820312 C 182.878906 241.574219 188.753906 239.714844 195.378906 236.449219 C 198.402344 234.957031 201.335938 233.304688 204.175781 231.492188 C 204.351562 231.375 204.546875 231.339844 204.753906 231.382812 C 204.960938 231.425781 205.125 231.535156 205.242188 231.714844 C 205.359375 231.890625 205.394531 232.085938 205.351562 232.292969 C 205.308594 232.5 205.199219 232.664062 205.023438 232.78125 C 204.429688 233.167969 190.925781 242.007812 179.800781 243.257812 C 181.699219 246.449219 185.976562 256.472656 182.367188 278.46875 C 182.332031 278.652344 182.242188 278.804688 182.101562 278.921875 C 181.957031 279.039062 181.792969 279.097656 181.605469 279.09375 Z M 181.605469 279.09375 " fill-opacity="1" fill-rule="nonzero"/><path fill="#ffffff" d="M 101.867188 198.925781 C 101.585938 198.929688 101.371094 198.8125 101.214844 198.578125 C 89.503906 180.441406 87.472656 164.289062 87.453125 164.132812 C 87.429688 163.917969 87.480469 163.730469 87.613281 163.5625 C 87.746094 163.394531 87.917969 163.300781 88.128906 163.273438 C 88.339844 163.25 88.527344 163.304688 88.695312 163.433594 C 88.863281 163.566406 88.960938 163.738281 88.984375 163.949219 C 88.984375 164.109375 91.007812 179.921875 102.515625 197.738281 C 102.628906 197.917969 102.664062 198.113281 102.621094 198.320312 C 102.574219 198.527344 102.460938 198.691406 102.28125 198.804688 C 102.15625 198.886719 102.019531 198.929688 101.867188 198.925781 Z M 101.867188 198.925781 " fill-opacity="1" fill-rule="nonzero"/><path fill="#ffffff" d="M 121.957031 219.777344 C 121.84375 219.78125 121.734375 219.753906 121.628906 219.707031 C 115.097656 216.632812 105.828125 205.191406 105.433594 204.707031 C 105.316406 204.542969 105.273438 204.359375 105.300781 204.15625 C 105.332031 203.953125 105.425781 203.789062 105.582031 203.660156 C 105.742188 203.535156 105.921875 203.476562 106.125 203.492188 C 106.328125 203.507812 106.5 203.589844 106.636719 203.738281 C 106.730469 203.851562 116.078125 215.386719 122.285156 218.316406 C 122.449219 218.394531 122.566406 218.515625 122.644531 218.675781 C 122.722656 218.839844 122.742188 219.007812 122.703125 219.183594 C 122.664062 219.359375 122.578125 219.5 122.4375 219.613281 C 122.296875 219.726562 122.136719 219.785156 121.957031 219.789062 Z M 121.957031 219.777344 " fill-opacity="1" fill-rule="nonzero"/><path fill="#ffffff" d="M 142.054688 76.105469 C 141.738281 76.109375 141.507812 75.96875 141.367188 75.6875 C 141.269531 75.496094 141.257812 75.300781 141.320312 75.097656 C 141.386719 74.894531 141.515625 74.746094 141.703125 74.648438 C 141.925781 74.535156 147.316406 71.828125 156.519531 70.265625 C 164.988281 68.820312 178.386719 68.140625 194.214844 73.085938 C 194.421875 73.148438 194.570312 73.273438 194.671875 73.460938 C 194.769531 73.648438 194.789062 73.847656 194.726562 74.050781 C 194.664062 74.253906 194.535156 74.402344 194.347656 74.503906 C 194.160156 74.601562 193.964844 74.621094 193.761719 74.558594 C 178.273438 69.714844 165.136719 70.371094 156.859375 71.773438 C 147.871094 73.296875 142.472656 75.996094 142.417969 76.023438 C 142.304688 76.082031 142.183594 76.109375 142.054688 76.105469 Z M 142.054688 76.105469 " fill-opacity="1" fill-rule="nonzero"/></svg>