<svg xmlns="http://www.w3.org/2000/svg" xmlns:xlink="http://www.w3.org/1999/xlink" width="500" zoomAndPan="magnify" viewBox="0 0 375 374.999991" height="500" preserveAspectRatio="xMidYMid meet" version="1.0"><defs><clipPath id="2496ca6b75"><path d="M 104.371094 72 L 242 72 L 242 296 L 104.371094 296 Z M 104.371094 72 " clip-rule="nonzero"/></clipPath><clipPath id="78c98014bc"><path d="M 104.371094 71.453125 L 270.867188 71.453125 L 270.867188 303.203125 L 104.371094 303.203125 Z M 104.371094 71.453125 " clip-rule="nonzero"/></clipPath></defs><g clip-path="url(#2496ca6b75)"><path fill="#d8e5d6" d="M 241.773438 275.234375 L 231.953125 135.332031 L 229.035156 135.332031 L 229.636719 133.246094 L 226.351562 116.390625 L 218.429688 113.195312 L 205.371094 123.523438 L 196.109375 127.734375 C 196.109375 127.734375 196.15625 118.890625 189.8125 115.230469 C 188.652344 114.351562 187.402344 113.609375 186.015625 113.054688 C 184.996094 112.453125 184.347656 112.082031 183.976562 111.898438 C 184.808594 111.710938 186.015625 111.480469 187.449219 111.296875 L 190.273438 111.0625 L 198.519531 110.648438 L 198.472656 110.554688 C 201.945312 110.414062 206.53125 109.398438 208.382812 106.480469 C 210.742188 102.683594 207.316406 97.820312 203.378906 97.125 C 199.257812 96.429688 194.90625 99.023438 191.988281 101.664062 C 191.433594 102.171875 190.875 102.683594 190.367188 103.238281 L 189.671875 102.960938 L 188.886719 102.960938 C 190.414062 100.738281 192.035156 98.421875 193.65625 96.429688 C 198.101562 90.828125 208.707031 73.738281 194.90625 72.535156 C 184.996094 71.652344 182.910156 85.824219 182.355469 92.816406 C 182.078125 96.429688 181.984375 100.089844 182.078125 103.699219 L 181.429688 103.886719 L 180.734375 103.980469 C 180.226562 102.265625 179.625 100.550781 178.882812 98.882812 C 177.308594 95.273438 174.34375 91.152344 170.316406 90.132812 C 166.425781 89.160156 161.332031 92.214844 161.933594 96.660156 C 162.441406 100.503906 167.164062 103.5625 170.40625 104.953125 C 174.066406 106.480469 177.539062 108.5625 179.902344 110.089844 L 180.316406 111.15625 L 180.410156 111.851562 C 178.835938 111.757812 177.261719 111.898438 175.734375 112.269531 C 168.507812 114.027344 163.554688 120.695312 163.507812 128.105469 L 163.414062 135.285156 L 161.515625 135.285156 C 161.515625 135.285156 160.171875 120.140625 148.503906 118.289062 C 145.03125 117.734375 141.371094 116.667969 138.917969 114.027344 C 134.472656 109.257812 135.535156 101.710938 129.46875 98.097656 C 124.421875 95.132812 117.753906 95.6875 114 100.460938 C 107.980469 108.148438 112.148438 116.34375 118.355469 119.679688 C 124.515625 123.011719 118.078125 130.421875 120.390625 135.332031 L 116.039062 135.332031 L 105.386719 287.226562 L 104.371094 287.832031 L 105.015625 288.941406 L 106.683594 287.96875 L 149.105469 293.898438 L 150.679688 295.285156 L 151.558594 294.3125 L 151.328125 294.128906 Z M 183.652344 111.621094 C 183.652344 111.667969 183.605469 111.667969 183.605469 111.710938 C 183.511719 111.667969 183.511719 111.667969 183.511719 111.667969 Z M 183.652344 111.621094 " fill-opacity="1" fill-rule="nonzero"/></g><g clip-path="url(#78c98014bc)"><path fill="#00473c" d="M 242.464844 275.464844 L 232.601562 134.683594 L 231.027344 134.683594 C 231.628906 130.886719 233.804688 112.824219 217.550781 110.832031 C 203.660156 109.121094 199.167969 118.382812 198.007812 121.667969 C 197.40625 123.335938 196.898438 125.050781 196.527344 126.71875 C 196.15625 122.085938 193.980469 117.734375 190.136719 114.769531 C 188.746094 113.703125 187.265625 112.871094 185.644531 112.269531 C 188.238281 111.804688 192.496094 111.25 197.3125 111.34375 C 198.796875 111.386719 206.296875 111.296875 209.03125 106.894531 C 210.09375 105.183594 210.1875 103.144531 209.308594 101.152344 C 208.242188 98.792969 205.972656 96.984375 203.566406 96.570312 C 198.425781 95.644531 193.515625 99.53125 191.617188 101.246094 C 191.015625 101.800781 190.367188 102.402344 189.765625 103.007812 C 191.246094 100.875 192.777344 98.699219 194.304688 96.800781 C 198.054688 92.078125 204.492188 81.65625 201.992188 75.867188 C 201.019531 73.507812 198.703125 72.164062 195.136719 71.839844 C 192.589844 71.609375 190.367188 72.300781 188.515625 73.878906 C 184.855469 76.980469 182.632812 83.277344 181.847656 92.726562 C 181.523438 96.429688 181.429688 100.179688 181.523438 103.933594 C 180.921875 101.988281 180.316406 100.273438 179.625 98.652344 C 178.558594 96.335938 175.640625 90.78125 170.59375 89.53125 C 168.183594 88.929688 165.40625 89.667969 163.460938 91.429688 C 161.839844 92.910156 161.097656 94.808594 161.378906 96.800781 C 162.070312 101.894531 168.925781 105.042969 170.269531 105.597656 C 174.34375 107.3125 178.140625 109.675781 180.410156 111.203125 C 178.789062 111.109375 177.214844 111.296875 175.640625 111.667969 C 168.230469 113.519531 162.996094 120.28125 162.90625 128.152344 L 162.8125 134.683594 L 162.164062 134.683594 C 161.746094 131.71875 159.292969 119.398438 148.6875 117.734375 C 144.382812 117.039062 141.464844 115.742188 139.472656 113.65625 C 137.574219 111.667969 136.695312 109.074219 135.8125 106.570312 C 134.65625 103.191406 133.40625 99.671875 129.792969 97.542969 C 124.234375 94.253906 117.195312 95.363281 113.492188 100.089844 C 110.898438 103.421875 109.925781 107.082031 110.714844 110.785156 C 111.546875 114.675781 114.28125 118.242188 118.078125 120.28125 C 121.273438 121.992188 120.625 124.957031 119.882812 128.339844 C 119.421875 130.46875 118.910156 132.691406 119.464844 134.683594 L 115.4375 134.683594 L 104.691406 287.597656 L 127.570312 274.078125 L 127.570312 136.027344 L 128.867188 136.027344 L 128.867188 274.167969 L 151.511719 294.3125 L 151.003906 294.871094 L 151.1875 294.871094 L 151.140625 294.871094 L 210.328125 303.390625 L 270.621094 279.632812 Z M 220.328125 116.390625 C 220.375 116.390625 228.804688 119.214844 227.738281 130.792969 L 226.441406 130.652344 C 227.371094 120.140625 219.960938 117.640625 219.914062 117.640625 Z M 192.496094 102.21875 C 193.746094 101.109375 197.777344 97.726562 202.039062 97.726562 C 202.453125 97.726562 202.871094 97.726562 203.335938 97.867188 C 205.324219 98.191406 207.222656 99.765625 208.105469 101.710938 C 208.796875 103.285156 208.753906 104.859375 207.917969 106.203125 C 206.113281 109.164062 201.109375 110.136719 197.359375 110.046875 C 192.128906 109.953125 187.496094 110.601562 184.902344 111.109375 C 185.132812 110.738281 185.414062 110.371094 185.734375 109.90625 C 185.921875 109.675781 186.015625 109.488281 186.105469 109.398438 C 188.285156 106.480469 190.414062 104.117188 192.496094 102.21875 Z M 183.097656 92.816406 C 183.835938 83.878906 185.96875 77.675781 189.300781 74.894531 C 190.691406 73.738281 192.3125 73.136719 194.164062 73.136719 C 194.394531 73.136719 194.675781 73.183594 195 73.136719 C 198.007812 73.414062 200 74.480469 200.789062 76.378906 C 202.871094 81.195312 197.453125 90.734375 193.285156 95.96875 C 189.394531 100.828125 185.179688 107.542969 183.234375 110.695312 C 182.632812 104.71875 182.585938 98.699219 183.097656 92.816406 Z M 162.628906 96.617188 C 162.441406 95.039062 162.996094 93.558594 164.292969 92.402344 C 165.546875 91.289062 167.257812 90.640625 168.878906 90.640625 C 169.34375 90.640625 169.804688 90.6875 170.175781 90.78125 C 174.808594 91.9375 177.585938 97.496094 178.328125 99.164062 C 179.4375 101.753906 180.410156 104.765625 181.246094 108.332031 C 181.289062 108.515625 181.335938 108.796875 181.382812 109.121094 C 181.476562 109.628906 181.523438 110.089844 181.613281 110.460938 C 179.390625 108.933594 175.222656 106.292969 170.730469 104.394531 C 167.304688 102.960938 163.089844 100.042969 162.628906 96.617188 Z M 164.203125 128.152344 C 164.25 124.171875 165.730469 120.511719 168.183594 117.6875 L 182.820312 120.789062 L 183.097656 119.539062 L 169.25 116.574219 C 171.101562 114.816406 173.417969 113.566406 175.964844 112.917969 C 178.28125 112.359375 180.640625 112.316406 183.003906 112.824219 C 185.367188 113.332031 187.496094 114.351562 189.394531 115.789062 C 194.027344 119.355469 196.109375 125.234375 195.042969 130.929688 L 185.273438 128.984375 L 184.996094 130.238281 L 194.765625 132.183594 C 194.582031 132.921875 194.304688 133.710938 193.980469 134.449219 L 193.886719 134.636719 L 164.109375 134.636719 Z M 127.570312 134.683594 L 120.855469 134.683594 C 120.207031 132.921875 120.671875 130.746094 121.132812 128.570312 C 121.875 125.140625 122.753906 121.253906 118.679688 119.074219 C 115.207031 117.222656 112.703125 113.980469 111.964844 110.460938 C 111.269531 107.21875 112.148438 103.886719 114.511719 100.875 C 115.019531 100.226562 115.621094 99.625 116.269531 99.117188 L 141.554688 134.683594 Z M 151.097656 293.527344 L 139.609375 136.027344 L 231.351562 136.027344 L 241.078125 274.769531 Z M 226.953125 197.339844 L 219.773438 198.171875 C 215.421875 184.789062 204.308594 175.898438 191.988281 175.898438 C 177.445312 175.898438 164.941406 188.355469 162.671875 204.980469 L 155.542969 205.816406 L 156.976562 227.070312 L 165.5 226.050781 C 170.59375 237.722656 180.6875 244.945312 191.988281 244.945312 C 205.371094 244.945312 217.132812 234.480469 220.699219 219.476562 L 228.386719 218.550781 Z M 191.988281 177.195312 C 203.703125 177.195312 214.171875 185.671875 218.429688 198.359375 L 209.910156 199.378906 C 206.34375 191.644531 199.492188 186.828125 191.941406 186.828125 C 182.863281 186.828125 174.898438 193.773438 172.398438 203.824219 L 164.015625 204.796875 C 166.238281 189.003906 178.140625 177.195312 191.988281 177.195312 Z M 156.929688 207.019531 L 225.75 198.820312 L 227 217.4375 L 158.183594 225.636719 Z M 191.988281 243.652344 C 181.335938 243.652344 171.796875 236.890625 166.839844 225.914062 L 175.824219 224.847656 C 179.625 230.636719 185.644531 234.109375 191.988281 234.109375 C 199.769531 234.109375 206.945312 228.832031 210.375 220.726562 L 219.3125 219.660156 C 215.792969 233.832031 204.675781 243.652344 191.988281 243.652344 Z M 227.046875 187.289062 L 222.96875 147.277344 L 224.265625 147.140625 L 228.339844 187.152344 Z M 128.171875 275.28125 L 150.03125 294.730469 L 105.757812 288.523438 Z M 128.171875 275.28125 " fill-opacity="1" fill-rule="nonzero"/></g></svg>