<svg xmlns="http://www.w3.org/2000/svg" xmlns:xlink="http://www.w3.org/1999/xlink" width="500" zoomAndPan="magnify" viewBox="0 0 375 374.999991" height="500" preserveAspectRatio="xMidYMid meet" version="1.0"><defs><clipPath id="b56bce7d80"><path d="M 93.816406 87 L 281.316406 87 L 281.316406 289.667969 L 93.816406 289.667969 Z M 93.816406 87 " clip-rule="nonzero"/></clipPath></defs><path fill="#d8e5d6" d="M 180.089844 242.15625 L 280.609375 204.46875 L 280.609375 230.089844 L 180.089844 267.699219 L 118.472656 232.796875 L 111.773438 229.203125 L 111.773438 203.378906 Z M 180.089844 207.9375 L 111.773438 169.199219 L 111.773438 194.984375 L 180.089844 233.722656 L 180.089844 233.519531 L 280.609375 195.832031 L 280.609375 170.246094 L 180.089844 207.898438 Z M 258.253906 123.558594 C 257.203125 120.734375 255.347656 118.355469 253.089844 116.660156 L 254.421875 107.78125 L 247.519531 107.78125 C 247.519531 107.78125 247.15625 110.324219 246.269531 113.714844 C 244.574219 113.429688 242.839844 113.511719 241.304688 113.996094 L 233.558594 109.558594 C 228.875 89.945312 221.492188 85.75 209.183594 89.058594 C 202.726562 90.792969 200.792969 96.441406 200.550781 101.929688 L 200.507812 101.929688 L 170.363281 113.269531 C 170.527344 112.90625 170.648438 112.542969 170.726562 112.179688 C 171.496094 108.546875 167.417969 105.722656 164.152344 106.328125 C 160.761719 106.933594 158.058594 110.242188 156.5625 113.109375 C 155.515625 115.125 154.667969 117.265625 153.980469 119.441406 L 153.457031 119.644531 C 154.183594 116.375 155.234375 112.019531 156.402344 108.507812 C 158.300781 102.859375 161.6875 86.476562 150.550781 89.5 C 142.5625 91.640625 144.984375 103.300781 146.515625 108.910156 C 147.605469 112.90625 149.019531 116.859375 150.714844 120.695312 L 150.351562 120.855469 C 148.9375 118.675781 147.363281 116.578125 145.546875 114.722656 C 143.289062 112.382812 139.777344 109.960938 136.347656 110.324219 C 132.996094 110.6875 129.929688 114.519531 131.667969 117.789062 C 133.199219 120.652344 137.71875 121.703125 140.664062 121.824219 C 142.519531 121.90625 144.335938 122.148438 146.03125 122.429688 L 145.910156 122.46875 L 111.730469 135.300781 L 111.730469 161.128906 L 180.050781 199.867188 L 180.492188 199.542969 L 280.609375 162.015625 L 280.609375 136.230469 Z M 258.253906 123.558594 " fill-opacity="1" fill-rule="nonzero"/><g clip-path="url(#b56bce7d80)"><path fill="#00473c" d="M 189.855469 188.6875 C 191.996094 188.6875 193.730469 186.46875 193.730469 183.765625 C 193.730469 181.0625 191.996094 178.84375 189.855469 178.84375 C 187.714844 178.84375 185.980469 181.0625 185.980469 183.765625 C 185.980469 186.511719 187.714844 188.6875 189.855469 188.6875 Z M 189.855469 179.972656 C 191.390625 179.972656 192.640625 181.667969 192.640625 183.804688 C 192.640625 185.90625 191.390625 187.640625 189.855469 187.640625 C 188.320312 187.640625 187.070312 185.945312 187.070312 183.804688 C 187.070312 181.707031 188.320312 179.972656 189.855469 179.972656 Z M 271.289062 157.898438 C 273.425781 157.898438 275.160156 155.679688 275.160156 152.976562 C 275.160156 150.273438 273.425781 148.054688 271.289062 148.054688 C 269.148438 148.054688 267.414062 150.273438 267.414062 152.976562 C 267.414062 155.679688 269.148438 157.898438 271.289062 157.898438 Z M 271.289062 149.144531 C 272.820312 149.144531 274.074219 150.839844 274.074219 152.976562 C 274.074219 155.117188 272.820312 156.808594 271.289062 156.808594 C 269.753906 156.808594 268.503906 155.117188 268.503906 152.976562 C 268.503906 150.839844 269.714844 149.144531 271.289062 149.144531 Z M 189.855469 212.335938 C 187.714844 212.335938 185.980469 214.554688 185.980469 217.257812 C 185.980469 219.960938 187.714844 222.183594 189.855469 222.183594 C 191.996094 222.183594 193.730469 219.960938 193.730469 217.257812 C 193.730469 214.554688 191.996094 212.335938 189.855469 212.335938 Z M 189.855469 221.132812 C 188.320312 221.132812 187.070312 219.4375 187.070312 217.300781 C 187.070312 215.199219 188.320312 213.464844 189.855469 213.464844 C 191.390625 213.464844 192.640625 215.160156 192.640625 217.300781 C 192.640625 219.398438 191.390625 221.132812 189.855469 221.132812 Z M 271.289062 181.546875 C 269.148438 181.546875 267.414062 183.765625 267.414062 186.46875 C 267.414062 189.171875 269.148438 191.394531 271.289062 191.394531 C 273.425781 191.394531 275.160156 189.171875 275.160156 186.46875 C 275.160156 183.765625 273.425781 181.546875 271.289062 181.546875 Z M 271.289062 190.304688 C 269.753906 190.304688 268.503906 188.609375 268.503906 186.46875 C 268.503906 184.332031 269.714844 182.636719 271.289062 182.636719 C 272.820312 182.636719 274.074219 184.332031 274.074219 186.46875 C 274.074219 188.609375 272.820312 190.304688 271.289062 190.304688 Z M 189.855469 257.289062 C 191.996094 257.289062 193.730469 255.070312 193.730469 252.367188 C 193.730469 249.664062 191.996094 247.441406 189.855469 247.441406 C 187.714844 247.441406 185.980469 249.664062 185.980469 252.367188 C 185.980469 255.070312 187.714844 257.289062 189.855469 257.289062 Z M 189.855469 248.574219 C 191.390625 248.574219 192.640625 250.269531 192.640625 252.40625 C 192.640625 254.503906 191.390625 256.238281 189.855469 256.238281 C 188.320312 256.238281 187.070312 254.546875 187.070312 252.40625 C 187.070312 250.269531 188.320312 248.574219 189.855469 248.574219 Z M 271.289062 226.460938 C 273.425781 226.460938 275.160156 224.238281 275.160156 221.535156 C 275.160156 218.832031 273.425781 216.613281 271.289062 216.613281 C 269.148438 216.613281 267.414062 218.832031 267.414062 221.535156 C 267.414062 224.238281 269.148438 226.460938 271.289062 226.460938 Z M 271.289062 217.742188 C 272.820312 217.742188 274.074219 219.4375 274.074219 221.578125 C 274.074219 223.714844 272.820312 225.410156 271.289062 225.410156 C 269.753906 225.410156 268.503906 223.714844 268.503906 221.578125 C 268.503906 219.4375 269.714844 217.742188 271.289062 217.742188 Z M 200.066406 173.234375 L 199.703125 172.226562 L 229.683594 161.007812 L 230.046875 162.015625 Z M 237.070312 173.234375 L 236.664062 172.226562 L 266.648438 161.007812 L 267.011719 162.015625 Z M 204.90625 251.035156 L 204.542969 250.027344 L 234.527344 238.808594 L 234.890625 239.816406 Z M 240.214844 238.203125 L 239.851562 237.195312 L 245.21875 235.175781 L 245.582031 236.183594 Z M 244.171875 193.25 L 214.1875 204.46875 L 213.824219 203.457031 L 243.808594 192.238281 Z M 249.335938 199.828125 L 249.699219 200.835938 L 236.101562 205.917969 L 235.738281 204.910156 Z M 223.1875 168.796875 L 223.550781 169.804688 L 204.90625 176.785156 L 204.542969 175.777344 Z M 141.796875 161.410156 L 121.738281 150.03125 L 122.265625 149.101562 L 142.320312 160.480469 Z M 130.414062 162.460938 L 150.472656 173.839844 L 149.945312 174.765625 L 129.890625 163.386719 Z M 148.613281 197.808594 L 168.671875 209.1875 L 168.144531 210.117188 L 148.089844 198.738281 Z M 154.425781 244.375 L 125.371094 227.914062 L 125.894531 226.984375 L 154.949219 243.449219 Z M 118.511719 192.117188 L 124.039062 195.265625 L 123.515625 196.195312 L 117.988281 193.046875 Z M 216.851562 94.261719 L 217.011719 93.171875 C 217.296875 93.214844 224.597656 94.425781 227.625 107.457031 L 226.578125 107.699219 C 223.710938 95.433594 216.890625 94.261719 216.851562 94.261719 Z M 168.914062 147.285156 C 168.992188 147.648438 170.566406 155.839844 168.914062 161.25 L 167.863281 160.925781 C 169.4375 155.800781 167.863281 147.570312 167.863281 147.488281 Z M 149.503906 129.53125 L 150.027344 130.5 C 149.988281 130.539062 146.597656 132.597656 147.847656 140.386719 L 146.757812 140.546875 C 145.347656 131.914062 149.300781 129.652344 149.503906 129.53125 Z M 250.023438 144.785156 L 249.011719 144.421875 C 250.464844 140.507812 251.3125 133.324219 251.3125 133.242188 L 252.402344 133.363281 C 252.363281 133.648438 251.554688 140.789062 250.023438 144.785156 Z M 274.433594 206.203125 L 274.433594 198.738281 L 281.132812 196.234375 L 281.132812 169.480469 L 274.433594 171.984375 L 274.433594 164.921875 L 281.132812 162.417969 L 281.132812 135.90625 L 258.65625 123.15625 C 257.6875 120.574219 255.996094 118.273438 253.652344 116.417969 C 254.300781 113.957031 254.863281 111.050781 254.90625 108.507812 C 254.984375 108.265625 255.066406 107.984375 255.066406 107.699219 C 255.066406 106.046875 253.210938 104.714844 250.910156 104.714844 C 248.609375 104.714844 246.753906 106.046875 246.753906 107.699219 C 246.753906 107.902344 246.792969 108.144531 246.835938 108.347656 C 246.671875 109.234375 246.351562 110.96875 245.824219 113.027344 C 244.371094 112.867188 242.839844 112.90625 241.347656 113.308594 L 233.960938 109.113281 C 231.5 98.660156 228.191406 92.488281 223.550781 89.542969 C 219.835938 87.160156 215.238281 86.839844 209.023438 88.492188 C 205.835938 89.339844 203.453125 91.195312 201.921875 93.941406 C 200.671875 96.199219 200.144531 98.863281 199.984375 101.445312 L 171.253906 112.261719 C 171.253906 112.21875 171.253906 112.21875 171.292969 112.179688 C 171.65625 110.523438 171.132812 108.910156 169.878906 107.621094 C 168.386719 106.085938 166.085938 105.277344 164.070312 105.640625 C 159.792969 106.410156 157.046875 110.847656 156.078125 112.703125 C 155.757812 113.308594 155.433594 113.957031 155.152344 114.640625 C 155.675781 112.582031 156.28125 110.445312 156.886719 108.546875 C 158.460938 103.785156 160.476562 93.820312 156.886719 90.027344 C 155.433594 88.492188 153.214844 88.089844 150.351562 88.855469 C 148.332031 89.421875 146.757812 90.589844 145.75 92.324219 C 143.773438 95.757812 143.851562 101.324219 145.910156 108.953125 C 146.71875 111.9375 147.726562 114.882812 148.898438 117.789062 C 147.886719 116.457031 146.878906 115.246094 145.871094 114.199219 C 144.417969 112.664062 140.542969 109.195312 136.226562 109.636719 C 134.207031 109.839844 132.230469 111.210938 131.222656 113.148438 C 130.375 114.761719 130.335938 116.457031 131.140625 117.910156 C 133.160156 121.703125 139.375 122.1875 140.625 122.269531 C 141.714844 122.308594 142.804688 122.429688 143.851562 122.550781 L 111.167969 134.816406 L 111.167969 161.328125 L 117.867188 165.121094 L 117.867188 172.023438 L 111.167969 168.230469 L 111.167969 195.308594 L 117.867188 199.101562 L 117.867188 206.242188 L 111.167969 202.449219 L 111.167969 229.527344 L 111.207031 229.566406 L 93.816406 242.15625 L 182.632812 289.25 L 278.109375 231.625 L 281.175781 230.453125 L 281.175781 203.699219 Z M 279.558594 136.230469 L 273.832031 138.367188 L 259.546875 130.257812 C 259.546875 130.097656 259.585938 129.933594 259.585938 129.773438 C 259.746094 128 259.585938 126.304688 259.183594 124.648438 Z M 280.042969 137.199219 L 280.042969 161.652344 L 180.65625 198.898438 L 180.65625 174.445312 Z M 175.003906 133.203125 C 174.5625 134.011719 174.199219 134.859375 173.875 135.707031 C 173.554688 135.746094 173.230469 135.828125 172.90625 135.867188 C 172.746094 135.90625 172.585938 135.949219 172.421875 135.988281 C 170.40625 133.769531 168.992188 128.480469 170.082031 123.074219 C 170.769531 119.523438 172.785156 114.800781 178.234375 112.140625 C 176.257812 115.003906 173.472656 121.339844 175.003906 133.203125 Z M 182.914062 124.851562 C 180.128906 126.546875 177.710938 128.84375 175.933594 131.628906 C 174.519531 117.949219 179.242188 112.339844 180.292969 111.292969 C 181.21875 111.007812 182.109375 110.808594 182.996094 110.6875 C 182.632812 111.777344 181.179688 117.144531 182.914062 124.851562 Z M 193.40625 122.832031 C 193.527344 123.238281 193.730469 123.597656 194.011719 123.921875 L 194.011719 131.386719 L 195.101562 131.386719 L 195.101562 124.929688 C 195.667969 125.292969 196.351562 125.617188 197.117188 125.820312 C 199.339844 126.425781 201.800781 126.140625 204.019531 125.335938 C 208.902344 128 212.65625 132.597656 214.109375 138.167969 C 212.210938 137.761719 210.113281 137.761719 207.773438 138.53125 C 200.871094 140.710938 199.175781 149.183594 197.683594 156.609375 C 197.28125 158.667969 196.875 160.644531 196.394531 162.417969 C 194.617188 155.882812 187.878906 135.019531 175.125 135.585938 C 178.152344 128.117188 185.335938 123.117188 193.40625 122.832031 Z M 183.4375 110.6875 C 184.488281 110.605469 185.457031 110.605469 186.425781 110.765625 C 186.464844 110.765625 190.21875 111.976562 191.066406 121.945312 C 188.5625 122.308594 186.144531 123.117188 183.921875 124.285156 C 182.1875 116.335938 184.042969 110.929688 184.042969 110.886719 Z M 188.765625 111.292969 C 192.355469 112.460938 195.019531 114.921875 196.394531 116.496094 C 194.617188 117.707031 193.445312 119.199219 193.203125 121.058594 C 193.203125 121.257812 193.203125 121.5 193.203125 121.742188 C 192.839844 121.742188 192.476562 121.785156 192.117188 121.824219 C 191.589844 115.933594 190.097656 112.867188 188.765625 111.292969 Z M 198.734375 156.808594 C 199.703125 152.046875 200.671875 147.164062 202.890625 143.734375 L 209.183594 142.203125 L 211.523438 148.617188 L 216.125 144.058594 L 222.542969 145.957031 C 223.347656 147.164062 223.832031 148.175781 224.035156 148.617188 C 221.652344 153.945312 219.714844 157.941406 219.273438 158.828125 L 195.34375 167.785156 C 197.039062 165.164062 197.84375 161.085938 198.734375 156.808594 Z M 247.722656 109.636719 C 248.488281 110.28125 249.617188 110.726562 250.910156 110.726562 C 252 110.726562 253.007812 110.402344 253.773438 109.917969 C 253.332031 114.722656 251.433594 120.332031 250.949219 121.703125 C 248.285156 121.863281 245.945312 119.320312 245.300781 118.515625 C 246.550781 115.042969 247.316406 111.65625 247.722656 109.636719 Z M 245.542969 114.117188 C 245.179688 115.488281 244.695312 116.941406 244.171875 118.433594 L 244.050781 118.71875 L 244.210938 118.960938 C 244.332031 119.121094 247.117188 122.792969 250.667969 122.792969 C 250.910156 122.792969 251.152344 122.792969 251.394531 122.753906 L 251.714844 122.710938 L 251.835938 122.390625 C 251.917969 122.226562 252.644531 120.25 253.371094 117.546875 C 257.042969 120.613281 258.898438 125.011719 258.496094 129.691406 C 257.40625 141.800781 256.71875 144.339844 256.519531 144.867188 L 220.804688 158.261719 C 223.1875 153.339844 232.023438 134.738281 235.132812 121.742188 L 236.746094 117.871094 C 238.640625 115.042969 241.710938 113.714844 245.542969 114.117188 Z M 239.972656 113.792969 C 238.480469 114.4375 237.148438 115.449219 236.058594 116.902344 L 235.496094 116.617188 C 235.132812 114.480469 234.726562 112.460938 234.324219 110.566406 Z M 202.890625 94.503906 C 204.261719 92.003906 206.441406 90.347656 209.304688 89.582031 C 215.195312 88.007812 219.554688 88.289062 222.984375 90.511719 C 228.273438 93.898438 231.945312 102.332031 234.445312 117.0625 L 234.042969 121.542969 C 232.144531 129.53125 228.03125 139.660156 224.640625 147.367188 C 223.46875 145.1875 220.320312 140.265625 215.277344 138.53125 C 213.945312 132.679688 210.195312 127.796875 205.269531 124.851562 C 205.996094 124.527344 206.683594 124.125 207.328125 123.679688 C 210.878906 121.21875 211.203125 117.992188 213.945312 115.328125 C 214.148438 115.125 216.042969 113.390625 216.8125 112.945312 C 216.890625 112.90625 216.890625 112.824219 216.8125 112.785156 C 215.519531 112.582031 214.066406 112.542969 212.65625 112.542969 C 209.507812 112.542969 205.59375 113.027344 202.121094 113.996094 L 202.648438 113.835938 C 202.605469 113.714844 198.933594 101.726562 202.890625 94.503906 Z M 199.945312 102.695312 C 199.902344 104.554688 200.066406 106.367188 200.308594 108.023438 L 191.46875 111.292969 C 190.058594 110.566406 188.484375 110 186.75 109.71875 C 186.707031 109.71875 186.707031 109.71875 186.667969 109.679688 C 184.609375 109.355469 182.308594 109.476562 179.847656 110.28125 L 179.808594 110.242188 C 179.808594 110.242188 179.765625 110.28125 179.726562 110.324219 C 179.402344 110.445312 179.082031 110.566406 178.757812 110.6875 C 174.722656 112.339844 171.777344 115.285156 170.121094 119.199219 L 158.378906 123.558594 C 157.167969 123.238281 155.917969 123.035156 154.628906 123.035156 C 156.523438 121.945312 159.671875 120.25 163.425781 118.960938 C 164.433594 118.597656 169.074219 116.859375 170.769531 113.550781 Z M 163.0625 153.582031 C 163.183594 157.375 163.304688 160.925781 161.6875 162.945312 L 146.394531 154.269531 L 142.398438 141.679688 C 140.382812 135.988281 142.359375 129.691406 147.242188 126.464844 C 148.898438 125.375 150.714844 124.648438 152.691406 124.367188 C 154.667969 124.082031 156.644531 124.246094 158.5 124.851562 C 164.070312 126.625 167.742188 132.074219 167.378906 138.125 L 167.378906 138.367188 C 162.617188 142 162.859375 148.253906 163.0625 153.582031 Z M 157.046875 113.308594 C 157.773438 111.976562 160.355469 107.5 164.273438 106.8125 C 164.515625 106.773438 164.796875 106.730469 165.078125 106.730469 C 166.53125 106.730469 168.066406 107.378906 169.113281 108.46875 C 170.121094 109.515625 170.527344 110.765625 170.242188 112.058594 C 169.636719 114.882812 166.007812 117.0625 163.0625 118.070312 C 158.945312 119.484375 155.515625 121.339844 153.660156 122.46875 C 153.78125 122.105469 153.859375 121.742188 153.980469 121.300781 C 154.023438 121.097656 154.101562 120.894531 154.101562 120.816406 C 154.992188 117.828125 155.957031 115.367188 157.046875 113.308594 Z M 147.039062 108.667969 C 145.0625 101.484375 144.984375 96 146.757812 92.890625 C 147.605469 91.398438 148.9375 90.390625 150.671875 89.90625 C 151.519531 89.664062 152.285156 89.582031 152.972656 89.582031 C 154.304688 89.582031 155.355469 89.984375 156.121094 90.792969 C 159.148438 93.980469 157.613281 102.980469 155.878906 108.226562 C 154.265625 113.109375 152.851562 119.5625 152.246094 122.589844 C 150.066406 118.113281 148.332031 113.429688 147.039062 108.667969 Z M 140.707031 121.21875 C 137.597656 121.058594 133.480469 119.96875 132.152344 117.464844 C 131.546875 116.335938 131.585938 114.964844 132.230469 113.714844 C 133.078125 112.140625 134.734375 110.96875 136.386719 110.765625 C 136.589844 110.726562 136.832031 110.726562 137.035156 110.726562 C 140.707031 110.726562 144.136719 113.957031 145.144531 115.003906 C 146.796875 116.699219 148.371094 118.757812 150.066406 121.339844 C 150.148438 121.460938 150.269531 121.664062 150.390625 121.90625 C 150.59375 122.269531 150.792969 122.589844 150.957031 122.875 C 148.777344 122.308594 144.742188 121.421875 140.707031 121.21875 Z M 146.113281 122.914062 C 147.726562 123.195312 149.140625 123.519531 150.230469 123.761719 C 148.976562 124.164062 147.765625 124.730469 146.675781 125.496094 C 145.105469 126.546875 143.851562 127.878906 142.84375 129.410156 L 118.550781 138.449219 L 113.0625 135.34375 Z M 112.296875 160.722656 L 112.296875 136.148438 L 179.605469 174.28125 L 179.605469 198.898438 Z M 112.296875 194.660156 L 112.296875 170.085938 L 179.523438 208.21875 L 179.523438 232.796875 Z M 179.644531 266.8125 L 118.753906 232.3125 L 112.335938 228.878906 L 112.335938 204.347656 L 179.644531 242.480469 Z M 162.65625 163.46875 C 164.433594 161.167969 164.3125 157.457031 164.152344 153.542969 C 163.910156 146.480469 163.625 139.175781 173.148438 136.957031 C 187.835938 133.566406 195.183594 162.097656 195.746094 164.398438 C 195.140625 166.132812 194.375 167.585938 193.367188 168.511719 L 180.25 173.4375 Z M 180.65625 208.261719 L 280.042969 171.015625 L 280.042969 195.46875 L 180.65625 232.714844 Z M 280.085938 229.6875 L 180.695312 266.894531 L 180.695312 242.480469 L 280.085938 205.234375 Z M 280.085938 229.6875 " fill-opacity="1" fill-rule="nonzero"/></g></svg>