<svg width="33" height="31" viewBox="0 0 33 31" fill="none" xmlns="http://www.w3.org/2000/svg">
<g clip-path="url(#clip0_1_198)">
<path d="M28.875 7.75H24.75C24.75 5.69457 23.8808 3.72333 22.3336 2.26992C20.7865 0.816515 18.688 0 16.5 0C14.312 0 12.2135 0.816515 10.6664 2.26992C9.11919 3.72333 8.25 5.69457 8.25 7.75H4.125C3.03098 7.75 1.98177 8.15826 1.20818 8.88496C0.434597 9.61166 0 10.5973 0 11.625L0 24.5417C0.0021833 26.2539 0.727213 27.8954 2.01605 29.1061C3.30489 30.3169 5.05231 30.9979 6.875 31H26.125C27.9477 30.9979 29.6951 30.3169 30.9839 29.1061C32.2728 27.8954 32.9978 26.2539 33 24.5417V11.625C33 10.5973 32.5654 9.61166 31.7918 8.88496C31.0182 8.15826 29.969 7.75 28.875 7.75ZM16.5 2.58333C17.9587 2.58333 19.3576 3.12768 20.3891 4.09661C21.4205 5.06555 22 6.37971 22 7.75H11C11 6.37971 11.5795 5.06555 12.6109 4.09661C13.6424 3.12768 15.0413 2.58333 16.5 2.58333ZM30.25 24.5417C30.25 25.5694 29.8154 26.555 29.0418 27.2817C28.2682 28.0084 27.219 28.4167 26.125 28.4167H6.875C5.78098 28.4167 4.73177 28.0084 3.95818 27.2817C3.1846 26.555 2.75 25.5694 2.75 24.5417V11.625C2.75 11.2824 2.89487 10.9539 3.15273 10.7117C3.41059 10.4694 3.76033 10.3333 4.125 10.3333H8.25V12.9167C8.25 13.2592 8.39487 13.5878 8.65273 13.83C8.91059 14.0722 9.26033 14.2083 9.625 14.2083C9.98967 14.2083 10.3394 14.0722 10.5973 13.83C10.8551 13.5878 11 13.2592 11 12.9167V10.3333H22V12.9167C22 13.2592 22.1449 13.5878 22.4027 13.83C22.6606 14.0722 23.0103 14.2083 23.375 14.2083C23.7397 14.2083 24.0894 14.0722 24.3473 13.83C24.6051 13.5878 24.75 13.2592 24.75 12.9167V10.3333H28.875C29.2397 10.3333 29.5894 10.4694 29.8473 10.7117C30.1051 10.9539 30.25 11.2824 30.25 11.625V24.5417Z" fill="#272727"/>
</g>
<defs>
<clipPath id="clip0_1_198">
<rect width="33" height="31" fill="white"/>
</clipPath>
</defs>
</svg>
